<?xml version="1.0" encoding="UTF-8"?>
<svg xmlns="http://www.w3.org/2000/svg" onmouseup="{ if(window.parent.document.onmouseup) window.parent.document.onmouseup(arguments[0]);}" viewBox="0 0 120 120" data-name="Layer 1" id="Layer_1"><defs><style>.cls-1{fill:#4160a8;}</style></defs><path data-cppathid="10000" d="M70,6V25H26V6H70m3-3H23V28H73V3Z" class="cls-1"/><path data-cppathid="10001" d="M70,50V69H26V50H70m3-3H23V72H73V47Z" class="cls-1"/><path data-cppathid="10002" d="M94,72V91H50V72H94m3-3H47V94H97V69Z" class="cls-1"/><path data-cppathid="10003" d="M70,94v19H26V94H70m3-3H23v25H73V91Z" class="cls-1"/><path data-cppathid="10004" d="M117,94v19H73V94h44m3-3H70v25h50V91Z" class="cls-1"/><path data-cppathid="10005" d="M47,28V47H3V28H47m3-3H0V50H50V25Z" class="cls-1"/><path data-cppathid="10006" d="M47,72V91H3V72H47m3-3H0V94H50V69Z" class="cls-1"/><path data-cppathid="10007" d="M94,28V47H50V28H94m3-3H47V50H97V25Z" class="cls-1"/></svg>