<?xml version="1.0" encoding="UTF-8"?>
<svg xmlns="http://www.w3.org/2000/svg" onmouseup="{ if(window.parent.document.onmouseup) window.parent.document.onmouseup(arguments[0]);}" preserveAspectRatio="xMidYMid meet" viewBox="0 0 225.000000 225.000000" height="225.000000pt" width="225.000000pt" version="1.0"><g stroke="none" fill="#000000" transform="translate(0.000000,225.000000) scale(0.100000,-0.100000)"><path data-cppathid="10000" d="M926 2214 c-523 -95 -906 -555 -906 -1089 0 -612 493 -1105 1105 -1105 612 0 1105 493 1105 1105 0 540 -385 997 -918 1090 -104 18 -281 18 -386 -1z m447 -68 c208 -53 344 -131 497 -286 152 -153 239 -313 287 -522 22 -99 22 -327 0 -426 -48 -213 -136 -370 -292 -527 -157 -156 -314 -244 -527 -292 -112 -25 -329 -22 -440 5 -220 54 -363 134 -518 291 -152 154 -239 314 -287 523 -22 99 -22 327 0 426 47 206 135 368 282 518 144 146 272 224 462 279 174 51 364 54 536 11z"/><path data-cppathid="10001" d="M1292 1648 c-9 -9 -12 -107 -12 -380 l0 -368 26 -10 c32 -13 305 -13 337 -1 l24 9 6 362 c5 245 4 367 -3 380 -10 19 -22 20 -188 20 -125 0 -182 -4 -190 -12z m333 -378 l0 -335 -145 0 -145 0 -3 325 c-1 179 0 331 3 338 3 10 38 12 147 10 l143 -3 0 -335z"/><path data-cppathid="10002" d="M1572 1559 c2 -6 8 -10 13 -10 5 0 11 4 13 10 2 6 -4 11 -13 11 -9 0 -15 -5 -13 -11z"/><path data-cppathid="10003" d="M1360 1435 c0 -12 20 -15 120 -15 100 0 120 3 120 15 0 13 -20 15 -120 15 -100 0 -120 -2 -120 -15z"/><path data-cppathid="10004" d="M1371 1361 c-8 -5 -11 -16 -8 -25 5 -13 25 -16 122 -16 106 0 115 1 115 19 0 10 -7 22 -16 25 -24 9 -197 7 -213 -3z"/><path data-cppathid="10005" d="M1367 1263 c-4 -3 -7 -12 -7 -20 0 -10 27 -13 120 -13 96 0 120 3 120 14 0 8 -7 17 -16 20 -21 8 -209 8 -217 -1z"/><path data-cppathid="10006" d="M955 1085 c-50 -19 -98 -65 -120 -116 -16 -34 -21 -38 -44 -31 -69 19 -148 -12 -191 -75 -19 -28 -25 -49 -25 -92 0 -69 27 -117 84 -149 40 -22 45 -23 335 -20 l295 3 31 30 c35 34 56 91 46 131 -6 24 -40 62 -90 102 -9 7 -16 27 -16 45 0 48 -50 120 -104 152 -57 33 -143 42 -201 20z m164 -53 c53 -26 90 -80 100 -142 5 -30 13 -56 19 -58 32 -10 77 -51 85 -76 13 -38 -12 -90 -53 -111 -26 -14 -69 -15 -300 -13 l-270 3 -36 36 c-69 69 -53 173 33 214 34 17 73 16 129 0 18 -6 24 -1 34 30 15 46 65 104 105 121 43 19 114 17 154 -4z"/></g></svg>