<?xml version="1.0" encoding="UTF-8"?>
<svg xmlns="http://www.w3.org/2000/svg" onmouseup="{ if(window.parent.document.onmouseup) window.parent.document.onmouseup(arguments[0]);}" preserveAspectRatio="xMidYMid meet" viewBox="0 0 820.000000 860.000000" height="860.000000pt" width="820.000000pt" version="1.0"><g stroke="none" fill="#000000" transform="translate(0.000000,860.000000) scale(0.100000,-0.100000)"><path data-cppathid="10000" d="M2990 6884 c-14 -2 -68 -12 -120 -20 -312 -53 -628 -244 -812 -489 -169 -225 -247 -472 -234 -750 5 -117 23 -252 41 -296 5 -14 -4 -17 -57 -23 -675 -71 -1150 -531 -1197 -1158 -37 -506 189 -959 624 -1253 188 -126 488 -235 720 -260 53 -6 62 -5 79 14 22 24 16 65 -12 79 -9 5 -60 17 -114 26 -577 97 -1017 468 -1148 967 -169 649 175 1253 814 1428 99 27 241 51 306 51 70 0 104 17 108 53 2 15 -6 63 -17 108 -11 44 -26 136 -33 204 -20 208 11 385 102 570 161 328 484 557 885 625 247 42 493 10 710 -95 250 -120 405 -281 571 -594 16 -30 36 -59 45 -64 13 -8 45 4 140 51 145 72 245 101 386 109 399 23 777 -219 900 -577 24 -71 36 -129 44 -211 8 -92 14 -117 29 -130 16 -14 46 -17 192 -17 394 1 703 -89 952 -277 169 -127 307 -332 365 -543 78 -283 29 -647 -124 -914 -214 -376 -555 -606 -990 -668 -44 -7 -88 -19 -97 -27 -36 -32 -12 -93 35 -93 30 0 186 26 239 40 183 47 381 140 519 244 228 172 414 432 497 696 71 224 86 387 57 600 -51 372 -270 684 -605 863 -227 122 -466 180 -793 194 -92 4 -155 10 -159 17 -4 6 -8 29 -8 51 -1 109 -81 326 -163 439 -96 132 -262 269 -402 331 -291 130 -626 125 -899 -12 -37 -19 -69 -33 -70 -31 -1 2 -24 41 -50 88 -193 340 -490 559 -861 635 -76 16 -342 29 -395 19z"/><path data-cppathid="10001" d="M3363 3832 c-12 -9 -27 -30 -32 -45 -8 -19 -11 -399 -11 -1179 0 -1055 1 -1152 17 -1178 9 -16 27 -33 40 -39 16 -8 225 -11 663 -11 l638 0 31 31 31 31 0 1175 0 1175 -29 29 -29 29 -649 0 c-599 0 -650 -2 -670 -18z m1048 -331 c27 -33 27 -129 0 -162 l-19 -24 -334 -3 c-213 -2 -346 1 -369 7 -41 12 -59 43 -59 101 0 52 17 87 49 99 15 6 166 9 369 8 l344 -2 19 -24z m-22 -406 c35 -18 41 -32 41 -100 0 -37 -6 -60 -19 -76 l-19 -24 -343 -3 c-365 -3 -387 -1 -408 44 -24 54 -6 143 32 162 14 7 142 11 355 11 274 1 338 -2 361 -14z m-11 -414 c6 -1 21 -10 32 -21 28 -28 28 -127 1 -161 l-19 -24 -355 -3 c-338 -3 -355 -2 -378 17 -21 17 -24 28 -24 84 0 75 18 104 69 109 24 3 620 2 674 -1z m-310 -391 c25 0 32 -4 32 -20 0 -18 -7 -20 -64 -20 -38 0 -68 5 -72 12 -10 16 27 40 51 34 11 -3 35 -6 53 -6z m295 1 c30 -1 37 -5 37 -21 0 -18 -7 -20 -64 -20 -38 0 -68 5 -72 12 -9 14 22 37 44 33 9 -2 34 -4 55 -4z m-563 -21 c0 -19 -5 -21 -67 -18 -55 2 -68 6 -71 21 -3 15 5 17 67 17 65 0 71 -2 71 -20z m332 -279 c96 -61 116 -200 40 -284 -54 -60 -165 -75 -238 -32 -57 34 -100 116 -90 176 17 106 87 168 192 169 39 0 61 -7 96 -29z"/><path data-cppathid="10002" d="M2563 3500 c-12 -5 -26 -18 -32 -29 -14 -26 -15 -1774 -1 -1801 19 -35 63 -40 392 -40 l318 0 -1 415 -1 415 -228 0 c-225 0 -229 0 -244 22 -20 29 -21 102 -1 122 22 21 94 30 191 22 46 -4 128 -4 184 0 l100 7 0 73 0 74 -228 0 c-262 0 -262 0 -262 82 0 76 3 77 261 80 l224 3 3 78 3 77 -229 0 c-209 0 -230 2 -245 18 -21 24 -22 90 -1 120 15 22 19 22 245 22 l229 0 0 125 0 125 -327 -1 c-181 0 -338 -4 -350 -9z m312 -1190 c0 -11 -13 -16 -44 -18 -45 -3 -68 8 -56 28 11 17 100 9 100 -10z m230 0 c0 -11 -13 -16 -44 -18 -45 -3 -68 8 -56 28 11 17 100 9 100 -10z m23 -210 c93 -57 93 -173 -1 -244 -34 -25 -103 -26 -145 0 -36 21 -72 85 -72 130 0 99 130 167 218 114z"/><path data-cppathid="10003" d="M4827 3504 c-4 -4 -7 -61 -7 -126 l0 -118 241 0 c146 0 248 -4 260 -10 15 -9 19 -22 19 -65 0 -87 7 -85 -276 -85 l-244 0 0 -80 0 -80 248 0 c180 0 251 -3 260 -12 7 -7 12 -35 12 -63 0 -86 3 -85 -279 -85 l-242 0 3 -77 3 -78 241 0 c189 0 245 -3 258 -14 11 -9 16 -29 16 -66 0 -86 3 -85 -278 -85 l-242 0 0 -65 c0 -58 2 -65 20 -65 13 0 20 -7 20 -20 0 -13 -7 -20 -20 -20 -20 0 -20 -7 -20 -330 l0 -331 355 3 c354 3 355 3 377 26 l23 23 0 889 0 889 -23 23 c-22 23 -24 23 -370 26 -191 1 -351 0 -355 -4z m263 -1194 c0 -17 -7 -20 -50 -20 -43 0 -50 3 -50 20 0 17 7 20 50 20 43 0 50 -3 50 -20z m225 0 c0 -11 -13 -16 -44 -18 -45 -3 -68 8 -56 28 11 17 100 9 100 -10z m-201 -209 c66 -44 86 -132 46 -199 -27 -44 -96 -75 -146 -66 -48 9 -113 71 -116 110 -4 77 16 125 65 154 42 26 113 26 151 1z"/></g></svg>