<?xml version="1.0" encoding="UTF-8"?>
<svg xmlns="http://www.w3.org/2000/svg" onmouseup="{ if(window.parent.document.onmouseup) window.parent.document.onmouseup(arguments[0]);}" preserveAspectRatio="xMidYMid meet" viewBox="0 0 225.000000 225.000000" height="225.000000pt" width="225.000000pt" version="1.0"><g stroke="none" fill="#000000" transform="translate(0.000000,225.000000) scale(0.100000,-0.100000)"><path data-cppathid="10000" d="M855 1811 c-214 -61 -362 -240 -385 -465 -5 -54 -13 -83 -24 -91 -9 -7 -44 -15 -78 -19 -228 -23 -398 -247 -359 -472 23 -132 111 -248 230 -307 l66 -32 820 0 820 0 66 32 c160 79 257 258 230 429 -25 161 -129 283 -284 334 -46 15 -50 19 -66 67 -10 29 -30 70 -45 92 -59 85 -185 135 -286 115 l-51 -11 -32 61 c-66 126 -204 235 -344 271 -75 20 -203 18 -278 -4z m227 -102 c160 -34 282 -147 329 -308 18 -60 45 -72 105 -43 132 64 274 -17 274 -158 0 -45 17 -66 62 -75 131 -24 196 -68 245 -164 27 -51 33 -74 33 -125 0 -123 -60 -220 -168 -273 l-57 -28 -780 0 -780 0 -53 24 c-151 68 -215 251 -141 399 51 104 131 155 262 169 34 3 72 15 90 27 43 29 77 98 77 158 0 56 30 153 64 206 31 50 114 125 165 151 90 46 180 59 273 40z"/></g></svg>