<?xml version="1.0" encoding="UTF-8"?>
<svg xmlns="http://www.w3.org/2000/svg" onmouseup="{ if(window.parent.document.onmouseup) window.parent.document.onmouseup(arguments[0]);}" viewBox="0, 0, 400,431.496062992126" height="431.496062992126" width="400" version="1.1" id="svg" xmlns:xlink="http://www.w3.org/1999/xlink"><g id="svgg"><path data-cppathid="10000" fill-rule="evenodd" fill="#9b9b9b" stroke="none" d="M163.700 54.596 L 162.400 55.161 162.400 89.794 C 162.400 127.309,162.480 125.914,160.220 128.000 L 159.136 129.000 129.382 129.200 C 96.146 129.423,97.292 129.320,99.148 131.928 C 99.617 132.585,100.000 133.192,100.000 133.276 C 100.000 133.360,102.655 136.139,105.900 139.453 C 111.317 144.985,117.167 151.154,118.238 152.464 C 118.479 152.759,119.739 154.017,121.038 155.259 C 122.337 156.502,124.262 158.482,125.316 159.659 C 126.369 160.837,127.528 162.070,127.890 162.400 C 128.253 162.730,128.920 163.420,129.375 163.933 C 129.829 164.446,132.180 166.896,134.600 169.379 C 142.244 177.220,148.388 183.610,155.400 191.013 C 159.140 194.962,164.273 200.264,166.807 202.796 C 169.341 205.328,172.859 209.020,174.624 211.000 C 176.390 212.980,179.897 216.670,182.417 219.200 C 187.881 224.684,190.400 227.435,190.400 227.917 C 190.400 228.112,190.858 228.480,191.419 228.736 C 191.979 228.991,192.742 229.731,193.115 230.380 C 194.617 232.999,198.628 233.884,200.355 231.979 C 203.677 228.314,209.203 222.483,214.000 217.580 C 220.140 211.305,220.542 210.877,224.000 206.950 C 225.210 205.576,227.370 203.419,228.800 202.158 C 230.230 200.896,231.803 199.277,232.295 198.561 C 232.787 197.844,233.543 197.145,233.975 197.008 C 234.406 196.871,234.874 196.397,235.015 195.954 C 235.155 195.511,237.985 192.416,241.303 189.075 C 244.622 185.734,249.159 181.020,251.387 178.600 C 253.615 176.180,257.950 171.632,261.019 168.494 C 264.089 165.356,267.590 161.718,268.800 160.409 C 270.010 159.101,274.420 154.517,278.600 150.224 C 287.993 140.575,294.432 133.797,295.777 132.142 C 298.208 129.153,298.694 129.201,265.720 129.193 L 237.000 129.187 235.438 128.293 C 231.911 126.277,232.215 129.740,232.089 90.146 L 231.979 55.150 230.602 54.575 C 228.569 53.726,165.658 53.745,163.700 54.596 M106.349 245.482 C 105.771 245.571,104.918 246.048,104.454 246.543 L 103.609 247.442 103.595 297.826 C 103.581 351.228,103.554 350.242,105.077 351.672 L 106.064 352.600 197.043 352.704 L 288.021 352.809 289.202 351.935 C 289.852 351.455,290.573 350.487,290.805 349.785 C 291.123 348.820,291.452 265.692,291.208 248.000 C 291.197 247.262,290.781 246.764,289.618 246.100 L 288.042 245.200 197.721 245.260 C 148.044 245.293,106.927 245.393,106.349 245.482 M267.002 265.220 C 268.678 266.896,268.853 270.599,268.720 301.681 C 268.588 332.671,268.693 331.403,266.109 333.096 C 265.097 333.760,261.199 333.806,197.818 333.902 C 122.687 334.016,128.919 334.251,126.899 331.227 L 125.981 329.854 126.091 298.556 C 126.198 267.688,126.211 267.243,127.022 266.157 C 128.668 263.953,125.335 264.048,198.291 264.127 L 265.982 264.200 267.002 265.220 M176.715 366.020 C 175.529 366.646,175.144 367.146,174.806 368.502 C 173.666 373.064,173.383 373.820,172.385 374.966 C 171.794 375.645,171.026 376.740,170.678 377.400 C 170.330 378.060,169.025 379.581,167.777 380.780 L 165.510 382.959 166.399 383.680 C 166.888 384.076,167.944 384.403,168.744 384.407 C 172.683 384.426,225.943 384.439,226.871 384.421 C 229.078 384.378,229.754 382.833,228.045 381.739 C 225.461 380.085,220.975 372.905,219.861 368.640 C 219.528 367.365,219.198 366.282,219.128 366.233 C 217.142 364.850,179.291 364.659,176.715 366.020 " id="path0"/><path data-cppathid="10001" fill-rule="evenodd" fill="#bcbcbc" stroke="none" d="M163.348 52.971 C 162.659 53.274,161.939 53.764,161.748 54.060 C 161.557 54.357,161.310 70.376,161.200 89.658 C 161.004 124.009,160.984 124.734,160.200 125.604 C 158.715 127.252,158.305 127.273,128.105 127.217 C 94.984 127.155,96.151 127.085,95.899 129.137 C 95.683 130.897,95.557 130.740,105.746 141.361 C 109.736 145.519,115.772 151.819,119.160 155.361 C 122.548 158.902,128.128 164.690,131.560 168.223 C 134.992 171.755,140.500 177.475,143.800 180.933 C 147.100 184.392,150.970 188.439,152.400 189.927 C 153.830 191.416,156.080 193.801,157.400 195.229 C 158.720 196.656,163.040 201.157,167.000 205.231 C 170.960 209.305,177.530 216.112,181.600 220.359 C 198.825 238.331,196.712 237.677,206.022 227.914 C 209.420 224.350,214.826 218.727,218.035 215.417 C 228.987 204.124,234.199 198.695,236.800 195.871 C 238.230 194.318,241.470 190.954,244.000 188.394 C 246.530 185.834,251.750 180.428,255.600 176.380 C 259.450 172.333,263.494 168.116,264.587 167.010 C 265.680 165.905,267.732 163.740,269.146 162.200 C 271.745 159.370,285.826 144.779,294.532 135.895 C 299.165 131.167,299.258 131.036,298.996 129.633 C 298.508 127.022,300.673 127.191,267.745 127.205 C 235.362 127.219,236.489 127.287,234.599 125.199 C 233.815 124.333,233.798 123.663,233.691 89.625 L 233.583 54.933 232.365 53.767 L 231.148 52.600 197.874 52.511 C 170.381 52.437,164.382 52.517,163.348 52.971 M230.602 54.575 L 231.979 55.150 232.089 90.146 C 232.215 129.740,231.911 126.277,235.438 128.293 L 237.000 129.187 265.720 129.193 C 298.694 129.201,298.208 129.153,295.777 132.142 C 294.432 133.797,287.993 140.575,278.600 150.224 C 274.420 154.517,270.010 159.101,268.800 160.409 C 267.590 161.718,264.089 165.356,261.019 168.494 C 257.950 171.632,253.615 176.180,251.387 178.600 C 249.159 181.020,244.622 185.734,241.303 189.075 C 237.985 192.416,235.155 195.511,235.015 195.954 C 234.874 196.397,234.406 196.871,233.975 197.008 C 233.543 197.145,232.787 197.844,232.295 198.561 C 231.803 199.277,230.230 200.896,228.800 202.158 C 227.370 203.419,225.210 205.576,224.000 206.950 C 220.542 210.877,220.140 211.305,214.000 217.580 C 209.203 222.483,203.677 228.314,200.355 231.979 C 198.628 233.884,194.617 232.999,193.115 230.380 C 192.742 229.731,191.979 228.991,191.419 228.736 C 190.858 228.480,190.400 228.112,190.400 227.917 C 190.400 227.435,187.881 224.684,182.417 219.200 C 179.897 216.670,176.390 212.980,174.624 211.000 C 172.859 209.020,169.341 205.328,166.807 202.796 C 164.273 200.264,159.140 194.962,155.400 191.013 C 148.388 183.610,142.244 177.220,134.600 169.379 C 132.180 166.896,129.829 164.446,129.375 163.933 C 128.920 163.420,128.253 162.730,127.890 162.400 C 127.528 162.070,126.369 160.837,125.316 159.659 C 124.262 158.482,122.337 156.502,121.038 155.259 C 119.739 154.017,118.479 152.759,118.238 152.464 C 117.167 151.154,111.317 144.985,105.900 139.453 C 102.655 136.139,100.000 133.360,100.000 133.276 C 100.000 133.192,99.617 132.585,99.148 131.928 C 97.292 129.320,96.146 129.423,129.382 129.200 L 159.136 129.000 160.220 128.000 C 162.480 125.914,162.400 127.309,162.400 89.794 L 162.400 55.161 163.700 54.596 C 165.658 53.745,228.569 53.726,230.602 54.575 M106.129 243.878 C 105.650 243.972,104.435 244.773,103.429 245.658 L 101.600 247.268 101.610 297.734 C 101.620 351.184,101.595 350.532,103.651 352.653 C 105.817 354.888,101.747 354.795,198.064 354.798 L 288.328 354.800 290.332 353.216 C 293.421 350.774,293.263 353.948,293.123 297.332 L 293.000 247.264 292.000 246.193 C 289.343 243.347,298.509 243.594,197.516 243.654 C 147.732 243.684,106.608 243.785,106.129 243.878 M289.618 246.100 C 290.781 246.764,291.197 247.262,291.208 248.000 C 291.452 265.692,291.123 348.820,290.805 349.785 C 290.573 350.487,289.852 351.455,289.202 351.935 L 288.021 352.809 197.043 352.704 L 106.064 352.600 105.077 351.672 C 103.554 350.242,103.581 351.228,103.595 297.826 L 103.609 247.442 104.454 246.543 C 105.673 245.245,99.898 245.325,197.721 245.260 L 288.042 245.200 289.618 246.100 M129.222 264.555 C 125.993 265.730,126.214 263.339,126.091 298.556 L 125.981 329.854 126.899 331.227 C 128.919 334.251,122.687 334.016,197.818 333.902 C 261.199 333.806,265.097 333.760,266.109 333.096 C 268.693 331.403,268.588 332.671,268.720 301.681 C 268.853 270.599,268.678 266.896,267.002 265.220 L 265.982 264.200 198.291 264.127 C 144.891 264.069,130.309 264.160,129.222 264.555 M265.089 266.179 C 267.244 267.483,267.221 267.129,267.221 299.231 C 267.220 332.086,267.356 330.084,265.051 331.317 L 263.400 332.200 197.200 332.200 C 133.849 332.200,130.954 332.169,129.928 331.472 C 127.495 329.821,127.624 331.608,127.587 299.205 L 127.553 269.550 128.591 267.779 C 129.292 266.583,129.982 265.930,130.715 265.769 C 131.312 265.638,131.980 265.469,132.200 265.394 C 134.216 264.706,263.920 265.473,265.089 266.179 M178.800 363.469 C 175.388 364.017,174.427 365.104,173.228 369.772 C 172.134 374.035,168.293 378.593,162.746 382.213 C 155.866 386.703,153.362 386.400,197.400 386.400 C 240.848 386.400,240.154 386.482,232.207 382.273 C 227.307 379.677,223.428 374.688,220.799 367.600 C 219.613 364.404,219.266 364.093,216.371 363.623 C 213.959 363.232,181.117 363.097,178.800 363.469 M217.354 365.672 C 218.259 365.932,219.058 366.184,219.128 366.233 C 219.198 366.282,219.528 367.365,219.861 368.640 C 220.975 372.905,225.461 380.085,228.045 381.739 C 229.754 382.833,229.078 384.378,226.871 384.421 C 225.943 384.439,172.683 384.426,168.744 384.407 C 167.944 384.403,166.888 384.076,166.399 383.680 L 165.510 382.959 167.777 380.780 C 169.025 379.581,170.330 378.060,170.678 377.400 C 171.026 376.740,171.794 375.645,172.385 374.966 C 173.383 373.820,173.666 373.064,174.806 368.502 C 175.631 365.198,175.362 365.238,196.954 365.218 C 210.218 365.205,216.189 365.338,217.354 365.672 " id="path1"/><path data-cppathid="10002" fill-rule="evenodd" fill="#f4f4f4" stroke="none" d="M0.000 215.600 L 0.000 431.200 200.000 431.200 L 400.000 431.200 400.000 215.600 L 400.000 0.000 200.000 0.000 L 0.000 0.000 0.000 215.600 M231.830 50.184 C 233.094 50.416,234.683 51.837,235.651 53.600 C 236.102 54.421,236.215 60.599,236.286 88.200 C 236.333 106.680,236.378 122.282,236.386 122.871 C 236.418 125.326,234.684 125.200,268.468 125.200 C 304.540 125.200,303.176 125.019,302.245 129.674 C 301.986 130.971,301.905 131.076,298.122 135.020 C 296.845 136.352,293.910 139.495,291.600 142.005 C 289.290 144.515,286.985 146.936,286.478 147.385 C 284.683 148.973,280.563 153.174,277.800 156.232 C 275.569 158.702,271.778 162.578,269.499 164.717 C 269.333 164.873,268.662 165.540,268.008 166.200 C 267.354 166.860,266.410 167.812,265.910 168.316 C 263.401 170.843,262.400 171.978,262.400 172.295 C 262.400 172.843,254.861 180.327,254.049 180.584 C 253.649 180.711,253.122 181.253,252.878 181.788 C 252.634 182.324,251.908 183.034,251.264 183.367 C 250.620 183.700,249.981 184.421,249.844 184.969 C 249.649 185.746,243.949 191.766,237.951 197.530 C 236.431 198.990,234.572 200.978,231.155 204.795 C 229.090 207.102,225.150 211.242,222.400 213.995 C 219.650 216.748,216.143 220.440,214.606 222.200 C 213.069 223.960,210.732 226.390,209.413 227.600 C 205.976 230.754,204.844 231.901,202.537 234.567 C 198.997 238.659,195.283 238.357,191.469 233.669 C 190.274 232.201,188.600 230.352,187.748 229.560 C 182.015 224.227,179.812 222.017,177.745 219.526 C 176.455 217.972,174.635 215.929,173.700 214.986 C 172.765 214.043,172.000 213.087,172.000 212.863 C 172.000 212.638,171.677 212.351,171.281 212.226 C 170.446 211.961,164.011 205.525,161.656 202.600 C 160.045 200.599,159.323 199.804,157.548 198.079 C 156.027 196.600,155.554 196.141,152.600 193.274 C 151.060 191.780,148.720 189.329,147.400 187.827 C 145.209 185.335,140.029 180.033,138.734 178.957 C 138.440 178.713,136.310 176.477,134.000 173.989 C 131.690 171.500,128.720 168.348,127.400 166.984 C 126.080 165.620,122.210 161.562,118.800 157.966 C 115.390 154.371,110.411 149.247,107.735 146.579 C 105.059 143.912,102.124 140.845,101.213 139.764 C 100.302 138.684,98.211 136.447,96.567 134.792 C 92.807 131.011,91.792 128.351,93.397 126.485 L 94.330 125.400 125.951 125.200 C 155.617 125.012,157.616 124.956,158.286 124.286 C 158.957 123.614,159.012 121.486,159.200 88.686 C 159.432 48.212,159.109 50.832,163.959 50.026 C 165.712 49.734,230.204 49.884,231.830 50.184 M290.812 242.100 C 291.860 242.629,293.212 243.824,294.095 245.000 L 295.596 247.000 295.598 298.606 L 295.600 350.212 294.759 351.806 C 293.523 354.149,292.036 355.560,290.312 356.024 C 288.117 356.615,106.482 356.561,104.283 355.968 C 99.319 354.632,99.605 358.129,99.602 298.726 C 99.600 244.343,99.543 245.972,101.525 243.850 C 104.214 240.971,95.232 241.219,197.415 241.209 L 289.030 241.200 290.812 242.100 M131.759 268.572 C 129.969 269.351,130.000 268.817,130.000 299.200 C 130.000 330.198,129.925 329.030,131.949 329.592 C 134.015 330.166,261.447 330.151,263.095 329.577 C 264.844 328.967,264.811 329.559,264.811 299.065 C 264.811 268.708,264.835 269.006,262.400 268.349 C 260.269 267.775,133.092 267.991,131.759 268.572 M219.601 361.801 C 220.859 362.451,223.290 366.818,224.594 370.768 C 225.973 374.946,228.939 377.765,234.200 379.897 C 239.816 382.174,241.239 386.347,236.835 387.622 C 235.873 387.901,222.577 387.999,196.532 387.919 L 157.664 387.800 156.632 386.830 C 154.679 384.995,156.267 381.756,159.760 380.449 C 164.356 378.730,168.103 375.679,169.646 372.400 C 170.112 371.410,170.800 370.150,171.175 369.600 C 171.549 369.050,172.073 367.621,172.338 366.424 C 172.891 363.931,174.384 361.736,175.699 361.482 C 178.536 360.936,218.490 361.226,219.601 361.801 " id="path2"/><path data-cppathid="10003" fill-rule="evenodd" fill="#c4c4c4" stroke="none" d="M163.682 52.104 C 160.537 53.111,160.745 50.526,160.669 89.506 C 160.593 127.853,160.762 125.525,157.984 126.358 C 156.962 126.664,147.222 126.800,126.334 126.800 C 93.202 126.800,95.197 126.635,95.205 129.380 C 95.210 131.195,95.631 131.704,105.499 141.839 C 108.304 144.720,113.570 150.202,117.200 154.021 C 120.830 157.841,126.950 164.217,130.800 168.190 C 138.924 176.575,152.206 190.436,157.635 196.194 C 159.706 198.390,164.195 203.070,167.610 206.594 C 182.302 221.749,192.150 232.036,192.649 232.749 C 192.945 233.171,194.000 233.993,194.995 234.576 C 198.445 236.598,199.265 236.040,210.526 224.000 C 211.863 222.570,217.389 216.810,222.806 211.200 C 228.222 205.590,233.722 199.847,235.027 198.438 C 236.332 197.029,240.010 193.186,243.200 189.898 C 254.307 178.451,268.443 163.728,272.867 159.000 C 274.308 157.460,277.357 154.300,279.643 151.979 C 281.929 149.657,285.407 146.057,287.372 143.979 C 289.336 141.900,292.974 138.109,295.455 135.553 C 299.911 130.963,299.964 130.886,299.735 129.353 C 299.331 126.647,301.228 126.800,268.104 126.800 C 236.028 126.800,236.853 126.847,235.106 124.917 C 234.462 124.205,234.406 121.708,234.307 89.483 L 234.200 54.815 232.965 53.580 C 232.285 52.901,231.025 52.182,230.165 51.982 C 227.896 51.456,165.348 51.570,163.682 52.104 M232.365 53.767 L 233.583 54.933 233.691 89.625 C 233.798 123.663,233.815 124.333,234.599 125.199 C 236.489 127.287,235.362 127.219,267.745 127.205 C 300.673 127.191,298.508 127.022,298.996 129.633 C 299.258 131.036,299.165 131.167,294.532 135.895 C 285.826 144.779,271.745 159.370,269.146 162.200 C 267.732 163.740,265.680 165.905,264.587 167.010 C 263.494 168.116,259.450 172.333,255.600 176.380 C 251.750 180.428,246.530 185.834,244.000 188.394 C 241.470 190.954,238.230 194.318,236.800 195.871 C 234.199 198.695,228.987 204.124,218.035 215.417 C 214.826 218.727,209.420 224.350,206.022 227.914 C 196.712 237.677,198.825 238.331,181.600 220.359 C 177.530 216.112,170.960 209.305,167.000 205.231 C 163.040 201.157,158.720 196.656,157.400 195.229 C 156.080 193.801,153.830 191.416,152.400 189.927 C 150.970 188.439,147.100 184.392,143.800 180.933 C 140.500 177.475,134.992 171.755,131.560 168.223 C 128.128 164.690,122.548 158.902,119.160 155.361 C 115.772 151.819,109.736 145.519,105.746 141.361 C 95.557 130.740,95.683 130.897,95.899 129.137 C 96.151 127.085,94.984 127.155,128.105 127.217 C 158.305 127.273,158.715 127.252,160.200 125.604 C 160.984 124.734,161.004 124.009,161.200 89.658 C 161.310 70.376,161.557 54.357,161.748 54.060 C 162.798 52.433,163.152 52.418,197.874 52.511 L 231.148 52.600 232.365 53.767 M106.546 243.182 C 105.161 243.511,103.477 244.611,102.104 246.082 L 101.208 247.043 101.205 298.221 C 101.202 353.927,101.089 350.753,103.139 352.905 C 105.431 355.312,100.627 355.195,197.674 355.198 C 293.065 355.200,289.205 355.279,291.349 353.275 C 293.761 351.019,293.631 354.196,293.608 298.293 L 293.586 247.029 292.493 245.864 C 291.892 245.223,290.500 244.274,289.400 243.755 L 287.400 242.811 197.600 242.848 C 148.210 242.868,107.236 243.019,106.546 243.182 M289.516 244.361 C 290.332 244.780,291.450 245.604,292.000 246.193 L 293.000 247.264 293.123 297.332 C 293.263 353.948,293.421 350.774,290.332 353.216 L 288.328 354.800 198.064 354.798 C 101.747 354.795,105.817 354.888,103.651 352.653 C 101.595 350.532,101.620 351.184,101.610 297.734 L 101.600 247.268 103.429 245.658 C 105.868 243.511,96.291 243.715,197.516 243.654 C 285.759 243.601,288.069 243.619,289.516 244.361 M132.200 265.394 C 131.980 265.469,131.312 265.638,130.715 265.769 C 129.982 265.930,129.292 266.583,128.591 267.779 L 127.553 269.550 127.587 299.205 C 127.624 331.608,127.495 329.821,129.928 331.472 C 130.954 332.169,133.849 332.200,197.200 332.200 L 263.400 332.200 265.051 331.317 C 267.356 330.084,267.220 332.086,267.221 299.231 C 267.221 267.129,267.244 267.483,265.089 266.179 C 263.920 265.473,134.216 264.706,132.200 265.394 M262.283 265.995 C 263.221 265.999,264.002 266.414,265.183 267.538 L 266.800 269.076 266.800 299.122 L 266.800 329.169 265.914 329.994 C 264.143 331.645,264.371 331.640,196.508 331.518 L 130.815 331.400 129.508 330.092 L 128.200 328.785 128.200 299.029 L 128.200 269.274 129.442 267.737 C 130.316 266.654,131.084 266.141,132.042 266.000 C 133.016 265.857,225.629 265.853,262.283 265.995 M176.393 363.417 C 174.674 364.143,174.119 364.989,173.210 368.267 C 171.620 374.001,167.397 379.002,161.535 382.092 C 160.361 382.711,158.993 383.708,158.495 384.309 L 157.591 385.400 158.440 386.100 C 159.773 387.199,235.040 387.182,236.399 386.082 L 237.286 385.363 236.249 384.131 C 235.679 383.453,234.056 382.324,232.643 381.622 C 227.314 378.971,223.796 374.466,221.038 366.760 C 220.676 365.748,219.920 364.488,219.358 363.960 L 218.336 363.000 198.068 362.912 C 180.895 362.837,177.585 362.914,176.393 363.417 M216.371 363.623 C 219.266 364.093,219.613 364.404,220.799 367.600 C 223.428 374.688,227.307 379.677,232.207 382.273 C 240.154 386.482,240.848 386.400,197.400 386.400 C 153.362 386.400,155.866 386.703,162.746 382.213 C 168.293 378.593,172.134 374.035,173.228 369.772 C 174.427 365.104,175.388 364.017,178.800 363.469 C 181.117 363.097,213.959 363.232,216.371 363.623 " id="path3"/><path data-cppathid="10004" fill-rule="evenodd" fill="#cccccc" stroke="none" d="M163.959 50.026 C 159.109 50.832,159.432 48.212,159.200 88.686 C 159.012 121.486,158.957 123.614,158.286 124.286 C 157.616 124.956,155.617 125.012,125.951 125.200 L 94.330 125.400 93.397 126.485 C 91.792 128.351,92.807 131.011,96.567 134.792 C 98.211 136.447,100.302 138.684,101.213 139.764 C 102.124 140.845,105.059 143.912,107.735 146.579 C 110.411 149.247,115.390 154.371,118.800 157.966 C 122.210 161.562,126.080 165.620,127.400 166.984 C 128.720 168.348,131.690 171.500,134.000 173.989 C 136.310 176.477,138.440 178.713,138.734 178.957 C 140.029 180.033,145.209 185.335,147.400 187.827 C 148.720 189.329,151.060 191.780,152.600 193.274 C 155.554 196.141,156.027 196.600,157.548 198.079 C 159.323 199.804,160.045 200.599,161.656 202.600 C 164.011 205.525,170.446 211.961,171.281 212.226 C 171.677 212.351,172.000 212.638,172.000 212.863 C 172.000 213.087,172.765 214.043,173.700 214.986 C 174.635 215.929,176.455 217.972,177.745 219.526 C 179.812 222.017,182.015 224.227,187.748 229.560 C 188.600 230.352,190.274 232.201,191.469 233.669 C 195.283 238.357,198.997 238.659,202.537 234.567 C 204.844 231.901,205.976 230.754,209.413 227.600 C 210.732 226.390,213.069 223.960,214.606 222.200 C 216.143 220.440,219.650 216.748,222.400 213.995 C 225.150 211.242,229.090 207.102,231.155 204.795 C 234.572 200.978,236.431 198.990,237.951 197.530 C 243.949 191.766,249.649 185.746,249.844 184.969 C 249.981 184.421,250.620 183.700,251.264 183.367 C 251.908 183.034,252.634 182.324,252.878 181.788 C 253.122 181.253,253.649 180.711,254.049 180.584 C 254.861 180.327,262.400 172.843,262.400 172.295 C 262.400 171.978,263.401 170.843,265.910 168.316 C 266.410 167.812,267.354 166.860,268.008 166.200 C 268.662 165.540,269.333 164.873,269.499 164.717 C 271.778 162.578,275.569 158.702,277.800 156.232 C 280.563 153.174,284.683 148.973,286.478 147.385 C 286.985 146.936,289.290 144.515,291.600 142.005 C 293.910 139.495,296.845 136.352,298.122 135.020 C 301.905 131.076,301.986 130.971,302.245 129.674 C 303.176 125.019,304.540 125.200,268.468 125.200 C 234.684 125.200,236.418 125.326,236.386 122.871 C 236.378 122.282,236.333 106.680,236.286 88.200 C 236.215 60.599,236.102 54.421,235.651 53.600 C 234.683 51.837,233.094 50.416,231.830 50.184 C 230.204 49.884,165.712 49.734,163.959 50.026 M230.165 51.982 C 231.025 52.182,232.285 52.901,232.965 53.580 L 234.200 54.815 234.307 89.483 C 234.406 121.708,234.462 124.205,235.106 124.917 C 236.853 126.847,236.028 126.800,268.104 126.800 C 301.228 126.800,299.331 126.647,299.735 129.353 C 299.964 130.886,299.911 130.963,295.455 135.553 C 292.974 138.109,289.336 141.900,287.372 143.979 C 285.407 146.057,281.929 149.657,279.643 151.979 C 277.357 154.300,274.308 157.460,272.867 159.000 C 268.443 163.728,254.307 178.451,243.200 189.898 C 240.010 193.186,236.332 197.029,235.027 198.438 C 233.722 199.847,228.222 205.590,222.806 211.200 C 217.389 216.810,211.863 222.570,210.526 224.000 C 199.265 236.040,198.445 236.598,194.995 234.576 C 194.000 233.993,192.945 233.171,192.649 232.749 C 192.150 232.036,182.302 221.749,167.610 206.594 C 164.195 203.070,159.706 198.390,157.635 196.194 C 152.206 190.436,138.924 176.575,130.800 168.190 C 126.950 164.217,120.830 157.841,117.200 154.021 C 113.570 150.202,108.304 144.720,105.499 141.839 C 95.631 131.704,95.210 131.195,95.205 129.380 C 95.197 126.635,93.202 126.800,126.334 126.800 C 147.222 126.800,156.962 126.664,157.984 126.358 C 160.762 125.525,160.593 127.853,160.669 89.506 C 160.745 50.526,160.537 53.111,163.682 52.104 C 165.348 51.570,227.896 51.456,230.165 51.982 M104.200 241.958 C 102.338 242.821,100.630 244.525,100.025 246.126 C 99.421 247.725,99.435 349.591,100.040 351.768 C 100.601 353.788,102.250 355.421,104.283 355.968 C 106.482 356.561,288.117 356.615,290.312 356.024 C 292.036 355.560,293.523 354.149,294.759 351.806 L 295.600 350.212 295.598 298.606 L 295.596 247.000 294.095 245.000 C 293.212 243.824,291.860 242.629,290.812 242.100 L 289.030 241.200 197.415 241.209 C 109.094 241.217,105.742 241.244,104.200 241.958 M289.400 243.755 C 290.500 244.274,291.892 245.223,292.493 245.864 L 293.586 247.029 293.608 298.293 C 293.631 354.196,293.761 351.019,291.349 353.275 C 289.205 355.279,293.065 355.200,197.674 355.198 C 100.627 355.195,105.431 355.312,103.139 352.905 C 101.089 350.753,101.202 353.927,101.205 298.221 L 101.208 247.043 102.104 246.082 C 103.477 244.611,105.161 243.511,106.546 243.182 C 107.236 243.019,148.210 242.868,197.600 242.848 L 287.400 242.811 289.400 243.755 M132.042 266.000 C 131.084 266.141,130.316 266.654,129.442 267.737 L 128.200 269.274 128.200 299.029 L 128.200 328.785 129.508 330.092 L 130.815 331.400 196.508 331.518 C 264.371 331.640,264.143 331.645,265.914 329.994 L 266.800 329.169 266.800 299.122 L 266.800 269.076 265.183 267.538 C 264.002 266.414,263.221 265.999,262.283 265.995 C 225.629 265.853,133.016 265.857,132.042 266.000 M262.400 268.349 C 264.835 269.006,264.811 268.708,264.811 299.065 C 264.811 329.559,264.844 328.967,263.095 329.577 C 261.447 330.151,134.015 330.166,131.949 329.592 C 129.925 329.030,130.000 330.198,130.000 299.200 C 130.000 268.817,129.969 269.351,131.759 268.572 C 133.092 267.991,260.269 267.775,262.400 268.349 M175.699 361.482 C 174.384 361.736,172.891 363.931,172.338 366.424 C 172.073 367.621,171.549 369.050,171.175 369.600 C 170.800 370.150,170.112 371.410,169.646 372.400 C 168.103 375.679,164.356 378.730,159.760 380.449 C 156.267 381.756,154.679 384.995,156.632 386.830 L 157.664 387.800 196.532 387.919 C 222.577 387.999,235.873 387.901,236.835 387.622 C 241.239 386.347,239.816 382.174,234.200 379.897 C 228.939 377.765,225.973 374.946,224.594 370.768 C 223.290 366.818,220.859 362.451,219.601 361.801 C 218.490 361.226,178.536 360.936,175.699 361.482 M219.358 363.960 C 219.920 364.488,220.676 365.748,221.038 366.760 C 223.796 374.466,227.314 378.971,232.643 381.622 C 234.056 382.324,235.679 383.453,236.249 384.131 L 237.286 385.363 236.399 386.082 C 235.040 387.182,159.773 387.199,158.440 386.100 L 157.591 385.400 158.495 384.309 C 158.993 383.708,160.361 382.711,161.535 382.092 C 167.397 379.002,171.620 374.001,173.210 368.267 C 174.809 362.502,173.405 362.804,198.068 362.912 L 218.336 363.000 219.358 363.960 " id="path4"/></g></svg>