<?xml version="1.0" encoding="UTF-8"?>
<svg xmlns="http://www.w3.org/2000/svg" onmouseup="{ if(window.parent.document.onmouseup) window.parent.document.onmouseup(arguments[0]);}" viewBox="0, 0, 400,214.9532710280374" height="214.9532710280374" width="400" version="1.1" id="svg" xmlns:xlink="http://www.w3.org/1999/xlink"><g id="svgg"><path data-cppathid="10000" fill-rule="evenodd" fill="#9c9c9c" stroke="none" d="M267.073 38.805 C 267.020 38.858,264.948 39.154,262.467 39.464 C 259.987 39.773,257.618 40.113,257.204 40.220 C 254.957 40.799,252.510 41.543,250.825 42.159 C 249.780 42.541,248.199 43.095,247.312 43.389 C 246.425 43.684,245.546 44.058,245.359 44.221 C 245.172 44.384,244.317 44.756,243.460 45.047 C 242.602 45.339,241.584 45.856,241.197 46.195 C 240.811 46.535,240.020 47.038,239.441 47.314 C 238.861 47.589,238.024 48.137,237.580 48.531 C 237.136 48.925,236.665 49.247,236.533 49.247 C 236.401 49.247,235.973 49.513,235.582 49.839 C 235.191 50.164,234.082 51.011,233.118 51.720 C 232.154 52.430,230.989 53.374,230.530 53.817 C 230.070 54.261,229.610 54.624,229.507 54.624 C 229.261 54.624,225.788 58.164,224.215 60.018 C 221.647 63.043,219.619 65.573,219.376 66.056 C 219.218 66.370,218.799 66.944,218.445 67.332 C 218.091 67.719,217.514 68.575,217.163 69.233 C 216.812 69.891,216.403 70.527,216.254 70.645 C 216.105 70.763,215.486 71.848,214.880 73.055 C 212.790 77.217,211.138 77.886,209.015 75.430 C 207.346 73.501,206.083 72.322,204.731 71.434 C 204.081 71.007,202.824 70.126,201.938 69.476 C 201.052 68.826,199.804 68.026,199.163 67.699 C 198.522 67.371,197.843 66.963,197.655 66.793 C 197.466 66.623,196.828 66.365,196.237 66.220 C 194.987 65.912,192.957 65.058,192.480 64.639 C 190.067 62.516,167.960 62.767,163.978 64.962 C 163.387 65.288,162.232 65.759,161.411 66.009 C 160.590 66.259,159.622 66.688,159.260 66.963 C 158.898 67.238,158.119 67.675,157.530 67.935 C 156.940 68.195,156.262 68.577,156.024 68.784 C 155.786 68.990,155.301 69.300,154.946 69.472 C 154.591 69.644,154.130 69.939,153.921 70.127 C 153.712 70.315,153.278 70.605,152.956 70.772 C 152.635 70.939,152.225 71.193,152.046 71.337 C 151.673 71.636,150.604 72.406,149.355 73.273 C 148.882 73.602,148.456 73.968,148.408 74.086 C 148.360 74.204,147.876 74.752,147.333 75.304 C 146.789 75.856,146.237 76.436,146.106 76.594 C 145.975 76.752,145.636 77.099,145.353 77.364 C 143.552 79.050,140.549 82.590,139.982 83.695 C 139.759 84.131,139.476 84.549,139.354 84.624 C 139.232 84.700,138.888 85.214,138.589 85.768 C 138.291 86.321,137.516 87.597,136.867 88.602 C 136.217 89.608,135.571 90.672,135.430 90.968 C 135.074 91.718,134.156 93.183,133.882 93.441 C 133.756 93.559,133.433 94.333,133.166 95.161 C 132.178 98.216,130.458 99.070,127.316 98.066 C 123.255 96.769,115.367 96.280,110.860 97.048 C 106.591 97.774,105.911 97.909,105.699 98.067 C 105.581 98.156,104.323 98.595,102.903 99.044 C 101.484 99.492,99.608 100.230,98.735 100.682 C 97.863 101.135,96.965 101.505,96.740 101.505 C 96.516 101.505,96.020 101.799,95.639 102.158 C 95.258 102.517,94.414 103.160,93.763 103.587 C 93.113 104.014,92.339 104.584,92.043 104.854 C 91.747 105.124,90.925 105.851,90.215 106.471 C 89.505 107.091,88.606 107.920,88.215 108.315 C 87.825 108.709,87.419 109.032,87.312 109.032 C 87.205 109.032,86.822 109.461,86.461 109.986 C 86.101 110.510,85.636 110.996,85.430 111.065 C 85.223 111.134,84.866 111.598,84.636 112.096 C 84.406 112.595,83.850 113.528,83.400 114.171 C 82.949 114.814,82.581 115.411,82.581 115.498 C 82.581 115.584,82.200 116.281,81.735 117.047 C 81.270 117.813,80.734 118.811,80.544 119.266 C 80.354 119.720,80.065 120.240,79.901 120.422 C 79.738 120.604,79.397 121.575,79.144 122.581 C 78.892 123.586,78.448 124.867,78.159 125.428 C 77.860 126.006,77.540 127.147,77.418 128.062 C 77.301 128.951,77.108 130.407,76.989 131.299 C 76.382 135.877,77.114 147.991,78.144 150.430 C 78.444 151.140,78.893 152.686,79.141 153.867 C 79.390 155.047,79.722 156.160,79.879 156.340 C 80.036 156.520,80.237 156.909,80.327 157.204 C 80.683 158.385,82.956 163.089,83.652 164.086 C 83.859 164.382,84.221 165.059,84.458 165.591 C 85.083 166.994,88.533 170.724,91.493 173.198 C 92.078 173.686,92.793 174.313,93.083 174.591 C 93.372 174.868,94.055 175.286,94.600 175.519 C 95.145 175.752,95.785 176.120,96.022 176.336 C 97.024 177.251,102.162 179.037,105.281 179.554 C 106.812 179.808,108.597 180.131,109.247 180.271 C 110.130 180.462,120.283 180.544,149.259 180.594 L 188.088 180.661 188.783 179.795 L 189.479 178.929 189.467 163.720 C 189.459 154.199,189.373 148.209,189.237 147.704 C 188.829 146.189,189.184 146.237,178.371 146.237 L 168.666 146.237 167.935 145.746 C 166.489 144.775,166.999 142.960,169.307 140.861 C 170.682 139.611,172.337 137.922,174.231 135.835 C 175.462 134.478,175.753 134.190,177.134 132.954 C 178.692 131.559,180.715 129.575,181.810 128.369 C 183.423 126.592,185.482 124.493,186.434 123.656 C 188.193 122.108,190.050 120.250,192.235 117.849 C 193.474 116.489,194.649 115.260,194.847 115.117 C 195.733 114.478,199.124 111.162,200.860 109.236 C 205.693 103.874,206.194 103.863,211.083 109.023 C 212.143 110.142,213.398 111.421,213.871 111.866 C 214.344 112.311,214.828 112.780,214.946 112.909 C 215.065 113.038,216.260 114.227,217.604 115.551 C 218.947 116.874,220.157 118.082,220.292 118.234 C 220.477 118.443,234.197 132.169,235.114 133.062 C 235.207 133.152,236.820 134.774,238.700 136.667 C 240.580 138.559,242.343 140.314,242.618 140.567 C 244.568 142.360,245.374 143.853,245.063 145.094 C 244.810 146.101,244.594 146.123,233.825 146.237 C 224.449 146.336,223.641 146.374,223.287 146.728 C 222.927 147.089,222.900 148.087,222.844 163.074 L 222.785 179.036 223.412 179.787 L 224.039 180.538 248.095 180.538 C 266.223 180.538,272.627 180.471,274.086 180.268 C 275.151 180.119,277.515 179.799,279.339 179.557 C 281.266 179.301,283.295 178.891,284.178 178.580 C 285.015 178.285,286.280 177.911,286.989 177.748 C 289.381 177.199,290.623 176.792,291.198 176.367 C 291.513 176.134,292.485 175.728,293.358 175.463 C 294.232 175.198,295.043 174.866,295.161 174.724 C 295.280 174.582,295.763 174.267,296.237 174.022 C 297.897 173.165,301.835 170.932,302.503 170.468 C 302.875 170.211,303.455 169.831,303.793 169.624 C 304.132 169.418,304.844 168.959,305.376 168.605 C 305.909 168.250,306.595 167.859,306.902 167.734 C 307.209 167.610,307.665 167.231,307.916 166.892 C 308.166 166.553,308.709 166.164,309.122 166.027 C 309.534 165.891,309.932 165.590,310.006 165.357 C 310.080 165.125,310.373 164.782,310.658 164.595 C 311.155 164.270,312.553 162.944,317.366 158.237 C 318.578 157.051,319.570 155.949,319.570 155.787 C 319.570 155.626,319.817 155.332,320.120 155.133 C 320.422 154.935,320.871 154.377,321.117 153.892 C 321.362 153.407,321.635 152.962,321.723 152.903 C 322.000 152.717,323.441 150.758,323.441 150.567 C 323.441 150.467,323.683 150.124,323.979 149.805 C 324.275 149.485,324.673 148.915,324.864 148.537 C 325.054 148.159,325.424 147.608,325.684 147.312 C 325.945 147.016,326.344 146.339,326.570 145.806 C 326.797 145.274,327.295 144.426,327.675 143.921 C 328.056 143.417,328.533 142.479,328.735 141.838 C 328.937 141.198,329.329 140.409,329.606 140.087 C 329.883 139.764,330.217 139.105,330.348 138.621 C 330.916 136.527,331.176 135.696,331.832 133.871 C 333.727 128.598,335.505 117.245,335.208 112.306 C 334.689 103.670,333.094 93.722,331.519 89.311 C 331.232 88.507,330.755 86.857,330.458 85.643 C 330.162 84.429,329.776 83.294,329.601 83.119 C 329.427 82.944,329.125 82.292,328.931 81.670 C 328.738 81.047,328.488 80.370,328.376 80.164 C 328.264 79.959,328.172 79.656,328.172 79.492 C 328.172 79.327,328.029 79.074,327.855 78.929 C 327.680 78.784,327.304 78.167,327.019 77.559 C 325.998 75.380,325.771 74.930,325.094 73.752 C 324.717 73.095,324.191 72.257,323.925 71.890 C 323.659 71.524,323.441 71.149,323.441 71.057 C 323.441 70.965,322.909 70.090,322.258 69.112 C 321.608 68.134,321.075 67.232,321.075 67.106 C 321.075 66.981,320.777 66.565,320.412 66.183 C 320.047 65.801,319.624 65.197,319.473 64.841 C 319.321 64.485,318.676 63.661,318.039 63.011 C 317.402 62.360,316.107 60.962,315.161 59.903 C 314.215 58.845,312.981 57.492,312.419 56.898 C 311.858 56.303,311.398 55.761,311.398 55.693 C 311.398 55.519,308.689 53.345,307.527 52.587 C 306.995 52.239,306.354 51.733,306.104 51.461 C 305.854 51.190,305.573 50.968,305.481 50.968 C 305.389 50.968,304.916 50.648,304.431 50.256 C 303.945 49.865,303.185 49.325,302.742 49.056 C 302.298 48.787,301.935 48.485,301.935 48.385 C 301.935 48.285,301.382 47.933,300.706 47.602 C 300.031 47.272,299.039 46.666,298.503 46.257 C 297.967 45.848,296.966 45.338,296.280 45.125 C 295.593 44.911,294.625 44.504,294.128 44.220 C 293.632 43.936,292.839 43.589,292.366 43.450 C 291.892 43.310,291.312 43.112,291.075 43.010 C 290.057 42.571,286.631 41.395,284.946 40.907 C 280.707 39.678,267.726 38.152,267.073 38.805 " id="path0"/><path data-cppathid="10001" fill-rule="evenodd" fill="#f4f4f4" stroke="none" d="M0.000 107.527 L 0.000 215.054 200.000 215.054 L 400.000 215.054 400.000 107.527 L 400.000 0.000 200.000 0.000 L 0.000 0.000 0.000 107.527 M277.336 37.207 C 280.100 37.399,281.052 37.578,284.946 38.635 C 285.597 38.811,286.722 39.090,287.447 39.254 C 288.747 39.548,290.441 40.136,290.860 40.438 C 290.978 40.523,291.656 40.759,292.366 40.961 C 293.075 41.163,293.801 41.447,293.978 41.592 C 294.156 41.736,294.737 42.036,295.269 42.258 C 296.640 42.830,298.065 43.662,298.065 43.891 C 298.065 43.998,298.184 44.086,298.330 44.086 C 298.839 44.086,300.853 45.230,300.965 45.582 C 301.027 45.778,301.565 46.113,302.161 46.327 C 302.758 46.541,303.362 46.829,303.504 46.966 C 303.647 47.103,304.512 47.678,305.427 48.244 C 306.342 48.810,307.164 49.394,307.255 49.541 C 307.345 49.688,307.777 50.026,308.215 50.291 C 308.652 50.557,309.063 50.941,309.128 51.146 C 309.193 51.351,309.536 51.628,309.891 51.762 C 310.246 51.895,310.698 52.287,310.896 52.632 C 311.094 52.978,311.533 53.419,311.871 53.613 C 312.209 53.807,312.652 54.259,312.856 54.618 C 313.059 54.976,313.392 55.324,313.596 55.389 C 314.095 55.551,317.928 59.446,318.303 60.173 C 318.468 60.492,318.917 61.054,319.301 61.423 C 319.685 61.792,320.000 62.210,320.000 62.352 C 320.000 62.493,320.338 62.966,320.751 63.401 C 321.164 63.837,321.502 64.266,321.504 64.355 C 321.505 64.444,321.652 64.685,321.831 64.892 C 323.366 66.663,324.086 67.571,324.086 67.734 C 324.086 67.840,324.219 68.059,324.382 68.222 C 324.544 68.384,325.044 69.190,325.493 70.011 C 325.942 70.833,326.528 71.855,326.794 72.281 C 327.061 72.708,327.383 73.445,327.511 73.919 C 327.639 74.393,328.020 75.129,328.358 75.555 C 328.697 75.981,329.195 77.034,329.466 77.896 C 329.736 78.757,330.114 79.656,330.304 79.892 C 330.751 80.449,331.297 81.603,331.626 82.688 C 331.769 83.161,332.107 83.988,332.376 84.525 C 332.645 85.063,333.027 86.079,333.224 86.783 C 333.421 87.488,333.730 88.390,333.910 88.788 C 334.090 89.186,334.428 90.396,334.661 91.476 C 334.894 92.557,335.224 94.070,335.394 94.839 C 335.739 96.397,336.174 98.857,336.534 101.290 C 337.477 107.652,337.339 120.357,336.263 126.237 C 335.674 129.457,334.087 135.340,333.780 135.443 C 333.652 135.485,333.548 135.702,333.548 135.924 C 333.548 136.472,332.686 138.743,332.350 139.079 C 332.201 139.227,331.911 139.858,331.705 140.481 C 331.499 141.104,331.080 141.990,330.773 142.452 C 329.945 143.696,329.969 143.652,329.269 145.197 C 328.912 145.985,328.517 146.694,328.391 146.772 C 328.265 146.850,327.824 147.560,327.412 148.349 C 325.785 151.469,324.305 153.548,321.663 156.424 C 320.807 157.355,320.023 158.274,319.919 158.467 C 319.815 158.660,319.380 159.175,318.951 159.613 C 318.523 160.050,317.785 160.845,317.312 161.380 C 316.839 161.914,316.217 162.573,315.930 162.842 C 315.644 163.112,315.027 163.696,314.560 164.140 C 314.094 164.583,313.579 164.946,313.417 164.946 C 313.255 164.946,313.001 165.140,312.853 165.376 C 312.706 165.613,312.052 166.169,311.400 166.613 C 310.748 167.056,310.044 167.630,309.835 167.888 C 309.626 168.146,309.117 168.565,308.704 168.821 C 308.290 169.077,307.683 169.543,307.355 169.858 C 307.026 170.173,306.532 170.575,306.257 170.753 C 305.982 170.930,305.542 171.239,305.279 171.440 C 305.016 171.640,304.229 172.113,303.530 172.491 C 302.830 172.869,302.100 173.315,301.906 173.482 C 301.712 173.650,301.041 173.981,300.415 174.219 C 299.788 174.457,299.011 174.875,298.687 175.148 C 298.363 175.420,297.340 175.913,296.414 176.243 C 295.489 176.573,294.489 177.062,294.194 177.329 C 293.898 177.595,293.075 177.973,292.366 178.167 C 291.656 178.361,290.712 178.714,290.269 178.951 C 288.014 180.157,282.766 181.535,277.641 182.268 C 275.568 182.565,273.746 182.852,273.593 182.906 C 273.440 182.960,262.095 183.009,248.384 183.014 L 223.453 183.024 222.399 182.490 C 220.517 181.536,220.616 182.620,220.632 163.254 L 220.646 146.370 221.126 145.670 C 222.277 143.989,222.313 143.983,231.750 143.938 C 238.767 143.904,240.298 143.842,240.958 143.567 L 241.748 143.236 241.068 142.247 C 240.331 141.177,234.085 134.839,233.767 134.839 C 233.660 134.839,233.401 134.548,233.192 134.194 C 232.982 133.839,232.697 133.548,232.559 133.548 C 232.421 133.548,232.163 133.331,231.986 133.065 C 231.662 132.578,225.971 126.824,223.414 124.398 C 221.567 122.645,218.065 118.898,218.065 118.675 C 218.065 118.576,217.967 118.495,217.848 118.495 C 217.538 118.495,216.344 117.395,216.344 117.110 C 216.344 116.979,216.000 116.687,215.580 116.460 C 215.160 116.234,214.655 115.776,214.458 115.444 C 214.261 115.111,213.937 114.786,213.736 114.723 C 213.536 114.659,213.231 114.393,213.059 114.131 C 212.886 113.870,211.964 112.863,211.009 111.894 C 210.055 110.925,209.111 109.885,208.913 109.582 C 208.715 109.280,208.426 109.032,208.272 109.032 C 208.117 109.032,207.667 108.655,207.272 108.193 L 206.554 107.354 206.049 107.763 C 205.771 107.988,205.408 108.172,205.242 108.172 C 204.789 108.172,200.215 112.509,200.215 112.939 C 200.215 113.038,200.112 113.118,199.986 113.118 C 199.861 113.118,198.966 113.965,197.998 115.000 C 196.164 116.960,193.645 119.488,192.564 120.454 C 192.218 120.762,191.524 121.440,191.022 121.959 C 190.520 122.478,190.013 123.000,189.896 123.118 C 189.779 123.237,188.345 124.688,186.711 126.344 C 185.076 128.000,183.502 129.555,183.213 129.800 C 182.924 130.045,181.527 131.484,180.108 132.998 C 176.806 136.518,177.349 135.982,173.011 140.011 C 172.065 140.890,171.078 141.974,170.818 142.420 L 170.345 143.230 170.830 143.548 C 171.234 143.813,172.797 143.875,180.243 143.922 L 189.172 143.978 189.942 144.506 C 191.467 145.552,191.370 144.313,191.410 163.239 C 191.450 182.667,191.528 181.737,189.798 182.574 C 188.884 183.017,188.834 183.018,149.865 183.012 L 110.847 183.007 107.139 182.367 C 103.611 181.757,102.421 181.468,100.215 180.687 C 98.812 180.190,96.344 178.916,96.344 178.689 C 96.344 178.582,96.195 178.495,96.013 178.495 C 95.537 178.495,93.960 177.656,93.563 177.191 C 93.378 176.974,92.757 176.552,92.183 176.254 C 90.560 175.408,86.521 171.786,85.417 170.185 C 85.160 169.814,84.611 169.170,84.196 168.755 C 83.781 168.340,83.441 167.863,83.441 167.696 C 83.441 167.529,83.142 167.108,82.776 166.761 C 82.410 166.413,81.915 165.748,81.676 165.282 C 81.436 164.817,81.115 164.310,80.962 164.157 C 80.809 164.004,80.511 163.417,80.300 162.853 C 80.090 162.289,79.693 161.465,79.418 161.021 C 79.144 160.578,78.781 159.707,78.611 159.086 C 77.965 156.719,77.790 156.195,77.172 154.776 C 76.713 153.722,76.443 152.583,76.202 150.690 C 76.019 149.246,75.737 147.765,75.575 147.399 C 74.174 144.232,74.112 130.893,75.484 127.867 C 75.703 127.384,75.994 126.263,76.131 125.376 C 76.469 123.195,76.776 122.126,77.214 121.613 C 77.416 121.376,77.697 120.796,77.838 120.323 C 78.243 118.966,78.337 118.749,79.690 116.079 C 80.393 114.691,81.089 113.508,81.237 113.451 C 81.384 113.394,81.505 113.212,81.505 113.047 C 81.505 112.883,81.941 112.280,82.473 111.709 C 83.005 111.137,83.441 110.601,83.441 110.518 C 83.441 110.234,88.712 104.748,90.016 103.676 C 90.362 103.391,91.102 102.927,91.660 102.646 C 92.218 102.365,92.803 101.951,92.960 101.727 C 93.117 101.503,93.886 100.986,94.669 100.578 C 95.452 100.170,96.301 99.641,96.556 99.404 C 96.812 99.166,97.473 98.802,98.026 98.596 C 98.580 98.390,99.177 98.103,99.355 97.960 C 101.296 96.391,106.994 95.099,115.484 94.304 C 117.652 94.101,125.327 94.951,127.386 95.622 C 129.582 96.338,131.291 95.299,132.247 92.666 C 132.522 91.909,133.010 90.903,133.332 90.430 C 133.654 89.957,134.111 89.134,134.348 88.602 C 135.028 87.076,137.670 83.060,138.766 81.887 C 139.093 81.538,139.471 81.043,139.607 80.787 C 139.906 80.222,141.238 78.638,142.688 77.125 C 143.280 76.507,143.969 75.765,144.220 75.474 C 145.532 73.959,149.635 70.323,150.033 70.323 C 150.184 70.323,150.408 70.135,150.531 69.906 C 150.774 69.450,154.025 67.235,155.122 66.777 C 155.499 66.619,156.052 66.297,156.353 66.061 C 156.653 65.825,157.621 65.413,158.503 65.145 C 159.386 64.878,160.204 64.534,160.323 64.380 C 160.659 63.943,162.828 63.064,163.996 62.891 C 164.578 62.805,165.538 62.512,166.129 62.240 C 170.209 60.362,186.783 60.154,190.307 61.935 C 191.054 62.313,192.407 62.780,193.118 62.905 C 194.242 63.104,196.192 63.880,196.559 64.276 C 196.737 64.467,197.608 64.852,198.495 65.132 C 199.382 65.411,200.253 65.766,200.430 65.920 C 200.608 66.074,201.414 66.544,202.222 66.965 C 203.030 67.385,204.046 68.016,204.480 68.368 C 205.738 69.387,206.733 70.263,207.312 70.860 C 207.608 71.165,208.271 71.822,208.786 72.320 C 209.301 72.818,209.807 73.444,209.910 73.710 C 210.389 74.948,211.999 74.111,212.881 72.164 C 213.219 71.420,213.605 70.743,213.740 70.660 C 213.875 70.576,214.124 70.176,214.293 69.770 C 214.463 69.365,214.900 68.718,215.265 68.333 C 215.630 67.949,216.223 67.126,216.583 66.504 C 216.943 65.882,217.409 65.282,217.618 65.170 C 217.827 65.058,218.166 64.526,218.372 63.989 C 218.577 63.451,218.813 63.011,218.895 63.011 C 218.978 63.011,219.429 62.464,219.899 61.795 C 221.025 60.192,221.962 59.132,223.652 57.545 C 224.419 56.825,226.160 55.119,227.523 53.752 C 229.889 51.380,232.575 49.188,234.194 48.310 C 234.608 48.086,235.240 47.648,235.600 47.338 C 235.960 47.028,236.758 46.583,237.375 46.350 C 238.008 46.111,238.550 45.757,238.619 45.537 C 238.687 45.323,239.446 44.810,240.305 44.396 C 241.164 43.983,242.191 43.405,242.588 43.113 C 242.985 42.820,243.403 42.581,243.517 42.581 C 243.631 42.581,244.410 42.245,245.249 41.834 C 247.677 40.647,250.534 39.622,253.048 39.039 C 254.328 38.742,255.681 38.398,256.054 38.275 C 259.985 36.981,268.178 36.569,277.336 37.207 " id="path1"/><path data-cppathid="10002" fill-rule="evenodd" fill="#cccccc" stroke="none" d="M267.419 36.929 C 262.185 37.045,258.447 37.487,256.054 38.275 C 255.681 38.398,254.328 38.742,253.048 39.039 C 250.534 39.622,247.677 40.647,245.249 41.834 C 244.410 42.245,243.631 42.581,243.517 42.581 C 243.403 42.581,242.985 42.820,242.588 43.113 C 242.191 43.405,241.164 43.983,240.305 44.396 C 239.446 44.810,238.687 45.323,238.619 45.537 C 238.550 45.757,238.008 46.111,237.375 46.350 C 236.758 46.583,235.960 47.028,235.600 47.338 C 235.240 47.648,234.608 48.086,234.194 48.310 C 232.575 49.188,229.889 51.380,227.523 53.752 C 226.160 55.119,224.419 56.825,223.652 57.545 C 221.962 59.132,221.025 60.192,219.899 61.795 C 219.429 62.464,218.978 63.011,218.895 63.011 C 218.813 63.011,218.577 63.451,218.372 63.989 C 218.166 64.526,217.827 65.058,217.618 65.170 C 217.409 65.282,216.943 65.882,216.583 66.504 C 216.223 67.126,215.630 67.949,215.265 68.333 C 214.900 68.718,214.463 69.365,214.293 69.770 C 214.124 70.176,213.875 70.576,213.740 70.660 C 213.605 70.743,213.219 71.420,212.881 72.164 C 211.999 74.111,210.389 74.948,209.910 73.710 C 209.807 73.444,209.301 72.818,208.786 72.320 C 208.271 71.822,207.608 71.165,207.312 70.860 C 206.733 70.263,205.738 69.387,204.480 68.368 C 204.046 68.016,203.030 67.385,202.222 66.965 C 201.414 66.544,200.608 66.074,200.430 65.920 C 200.253 65.766,199.382 65.411,198.495 65.132 C 197.608 64.852,196.737 64.467,196.559 64.276 C 196.192 63.880,194.242 63.104,193.118 62.905 C 192.407 62.780,191.054 62.313,190.307 61.935 C 186.783 60.154,170.209 60.362,166.129 62.240 C 165.538 62.512,164.578 62.805,163.996 62.891 C 162.828 63.064,160.659 63.943,160.323 64.380 C 160.204 64.534,159.386 64.878,158.503 65.145 C 157.621 65.413,156.653 65.825,156.353 66.061 C 156.052 66.297,155.499 66.619,155.122 66.777 C 154.025 67.235,150.774 69.450,150.531 69.906 C 150.408 70.135,150.184 70.323,150.033 70.323 C 149.635 70.323,145.532 73.959,144.220 75.474 C 143.969 75.765,143.280 76.507,142.688 77.125 C 141.238 78.638,139.906 80.222,139.607 80.787 C 139.471 81.043,139.093 81.538,138.766 81.887 C 137.670 83.060,135.028 87.076,134.348 88.602 C 134.111 89.134,133.654 89.957,133.332 90.430 C 133.010 90.903,132.522 91.909,132.247 92.666 C 131.291 95.299,129.582 96.338,127.386 95.622 C 125.327 94.951,117.652 94.101,115.484 94.304 C 106.994 95.099,101.296 96.391,99.355 97.960 C 99.177 98.103,98.580 98.390,98.026 98.596 C 97.473 98.802,96.812 99.166,96.556 99.404 C 96.301 99.641,95.452 100.170,94.669 100.578 C 93.886 100.986,93.117 101.503,92.960 101.727 C 92.803 101.951,92.218 102.365,91.660 102.646 C 91.102 102.927,90.362 103.391,90.016 103.676 C 88.712 104.748,83.441 110.234,83.441 110.518 C 83.441 110.601,83.005 111.137,82.473 111.709 C 81.941 112.280,81.505 112.883,81.505 113.047 C 81.505 113.212,81.384 113.394,81.237 113.451 C 81.089 113.508,80.393 114.691,79.690 116.079 C 78.337 118.749,78.243 118.966,77.838 120.323 C 77.697 120.796,77.416 121.376,77.214 121.613 C 76.776 122.126,76.469 123.195,76.131 125.376 C 75.994 126.263,75.703 127.384,75.484 127.867 C 74.112 130.893,74.174 144.232,75.575 147.399 C 75.737 147.765,76.019 149.246,76.202 150.690 C 76.443 152.583,76.713 153.722,77.172 154.776 C 77.790 156.195,77.965 156.719,78.611 159.086 C 78.781 159.707,79.144 160.578,79.418 161.021 C 79.693 161.465,80.090 162.289,80.300 162.853 C 80.511 163.417,80.809 164.004,80.962 164.157 C 81.115 164.310,81.436 164.817,81.676 165.282 C 81.915 165.748,82.410 166.413,82.776 166.761 C 83.142 167.108,83.441 167.529,83.441 167.696 C 83.441 167.863,83.781 168.340,84.196 168.755 C 84.611 169.170,85.160 169.814,85.417 170.185 C 86.521 171.786,90.560 175.408,92.183 176.254 C 92.757 176.552,93.378 176.974,93.563 177.191 C 93.960 177.656,95.537 178.495,96.013 178.495 C 96.195 178.495,96.344 178.582,96.344 178.689 C 96.344 178.916,98.812 180.190,100.215 180.687 C 102.421 181.468,103.611 181.757,107.139 182.367 L 110.847 183.007 149.865 183.012 C 188.834 183.018,188.884 183.017,189.798 182.574 C 191.528 181.737,191.450 182.667,191.410 163.239 C 191.370 144.313,191.467 145.552,189.942 144.506 L 189.172 143.978 180.243 143.922 C 172.797 143.875,171.234 143.813,170.830 143.548 L 170.345 143.230 170.818 142.420 C 171.078 141.974,172.065 140.890,173.011 140.011 C 177.349 135.982,176.806 136.518,180.108 132.998 C 181.527 131.484,182.924 130.045,183.213 129.800 C 183.502 129.555,185.076 128.000,186.711 126.344 C 188.345 124.688,189.779 123.237,189.896 123.118 C 190.013 123.000,190.520 122.478,191.022 121.959 C 191.524 121.440,192.218 120.762,192.564 120.454 C 193.645 119.488,196.164 116.960,197.998 115.000 C 198.966 113.965,199.861 113.118,199.986 113.118 C 200.112 113.118,200.215 113.038,200.215 112.939 C 200.215 112.509,204.789 108.172,205.242 108.172 C 205.408 108.172,205.771 107.988,206.049 107.763 L 206.554 107.354 207.272 108.193 C 207.667 108.655,208.117 109.032,208.272 109.032 C 208.426 109.032,208.715 109.280,208.913 109.582 C 209.111 109.885,210.055 110.925,211.009 111.894 C 211.964 112.863,212.886 113.870,213.059 114.131 C 213.231 114.393,213.536 114.659,213.736 114.723 C 213.937 114.786,214.261 115.111,214.458 115.444 C 214.655 115.776,215.160 116.234,215.580 116.460 C 216.000 116.687,216.344 116.979,216.344 117.110 C 216.344 117.395,217.538 118.495,217.848 118.495 C 217.967 118.495,218.065 118.576,218.065 118.675 C 218.065 118.898,221.567 122.645,223.414 124.398 C 225.971 126.824,231.662 132.578,231.986 133.065 C 232.163 133.331,232.421 133.548,232.559 133.548 C 232.697 133.548,232.982 133.839,233.192 134.194 C 233.401 134.548,233.660 134.839,233.767 134.839 C 234.085 134.839,240.331 141.177,241.068 142.247 L 241.748 143.236 240.958 143.567 C 240.298 143.842,238.767 143.904,231.750 143.938 C 222.313 143.983,222.277 143.989,221.126 145.670 L 220.646 146.370 220.632 163.254 C 220.616 182.620,220.517 181.536,222.399 182.490 L 223.453 183.024 248.384 183.014 C 262.095 183.009,273.440 182.960,273.593 182.906 C 273.746 182.852,275.568 182.565,277.641 182.268 C 282.766 181.535,288.014 180.157,290.269 178.951 C 290.712 178.714,291.656 178.361,292.366 178.167 C 293.075 177.973,293.898 177.595,294.194 177.329 C 294.489 177.062,295.489 176.573,296.414 176.243 C 297.340 175.913,298.363 175.420,298.687 175.148 C 299.011 174.875,299.788 174.457,300.415 174.219 C 301.041 173.981,301.712 173.650,301.906 173.482 C 302.100 173.315,302.830 172.869,303.530 172.491 C 304.229 172.113,305.016 171.640,305.279 171.440 C 305.542 171.239,305.982 170.930,306.257 170.753 C 306.532 170.575,307.026 170.173,307.355 169.858 C 307.683 169.543,308.290 169.077,308.704 168.821 C 309.117 168.565,309.626 168.146,309.835 167.888 C 310.044 167.630,310.748 167.056,311.400 166.613 C 312.052 166.169,312.706 165.613,312.853 165.376 C 313.001 165.140,313.255 164.946,313.417 164.946 C 313.579 164.946,314.094 164.583,314.560 164.140 C 315.027 163.696,315.644 163.112,315.930 162.842 C 316.217 162.573,316.839 161.914,317.312 161.380 C 317.785 160.845,318.523 160.050,318.951 159.613 C 319.380 159.175,319.815 158.660,319.919 158.467 C 320.023 158.274,320.807 157.355,321.663 156.424 C 324.305 153.548,325.785 151.469,327.412 148.349 C 327.824 147.560,328.265 146.850,328.391 146.772 C 328.517 146.694,328.912 145.985,329.269 145.197 C 329.969 143.652,329.945 143.696,330.773 142.452 C 331.080 141.990,331.499 141.104,331.705 140.481 C 331.911 139.858,332.201 139.227,332.350 139.079 C 332.686 138.743,333.548 136.472,333.548 135.924 C 333.548 135.702,333.652 135.485,333.780 135.443 C 334.087 135.340,335.674 129.457,336.263 126.237 C 337.339 120.357,337.477 107.652,336.534 101.290 C 336.174 98.857,335.739 96.397,335.394 94.839 C 335.224 94.070,334.894 92.557,334.661 91.476 C 334.428 90.396,334.090 89.186,333.910 88.788 C 333.730 88.390,333.421 87.488,333.224 86.783 C 333.027 86.079,332.645 85.063,332.376 84.525 C 332.107 83.988,331.769 83.161,331.626 82.688 C 331.297 81.603,330.751 80.449,330.304 79.892 C 330.114 79.656,329.736 78.757,329.466 77.896 C 329.195 77.034,328.697 75.981,328.358 75.555 C 328.020 75.129,327.639 74.393,327.511 73.919 C 327.383 73.445,327.061 72.708,326.794 72.281 C 326.528 71.855,325.942 70.833,325.493 70.011 C 325.044 69.190,324.544 68.384,324.382 68.222 C 324.219 68.059,324.086 67.840,324.086 67.734 C 324.086 67.571,323.366 66.663,321.831 64.892 C 321.652 64.685,321.505 64.444,321.504 64.355 C 321.502 64.266,321.164 63.837,320.751 63.401 C 320.338 62.966,320.000 62.493,320.000 62.352 C 320.000 62.210,319.685 61.792,319.301 61.423 C 318.917 61.054,318.468 60.492,318.303 60.173 C 317.928 59.446,314.095 55.551,313.596 55.389 C 313.392 55.324,313.059 54.976,312.856 54.618 C 312.652 54.259,312.209 53.807,311.871 53.613 C 311.533 53.419,311.094 52.978,310.896 52.632 C 310.698 52.287,310.246 51.895,309.891 51.762 C 309.536 51.628,309.193 51.351,309.128 51.146 C 309.063 50.941,308.652 50.557,308.215 50.291 C 307.777 50.026,307.345 49.688,307.255 49.541 C 307.164 49.394,306.342 48.810,305.427 48.244 C 304.512 47.678,303.647 47.103,303.504 46.966 C 303.362 46.829,302.758 46.541,302.161 46.327 C 301.565 46.113,301.027 45.778,300.965 45.582 C 300.853 45.230,298.839 44.086,298.330 44.086 C 298.184 44.086,298.065 43.998,298.065 43.891 C 298.065 43.662,296.640 42.830,295.269 42.258 C 294.737 42.036,294.156 41.736,293.978 41.592 C 293.801 41.447,293.075 41.163,292.366 40.961 C 291.656 40.759,290.978 40.523,290.860 40.438 C 290.441 40.136,288.747 39.548,287.447 39.254 C 286.722 39.090,285.597 38.811,284.946 38.635 C 284.296 38.458,283.000 38.112,282.067 37.866 C 279.671 37.233,272.992 36.806,267.419 36.929 M274.409 37.863 C 276.360 37.989,278.828 38.281,279.892 38.512 C 280.957 38.743,282.975 39.175,284.378 39.472 C 285.780 39.769,287.183 40.142,287.496 40.301 C 287.809 40.459,288.694 40.803,289.462 41.065 C 290.231 41.326,291.371 41.774,291.995 42.060 C 292.619 42.347,293.188 42.581,293.260 42.581 C 293.534 42.581,299.227 45.463,300.214 46.101 C 300.786 46.471,301.957 47.210,302.816 47.742 C 305.301 49.282,308.225 51.513,310.323 53.470 C 315.014 57.846,317.952 61.011,320.107 64.010 C 323.556 68.812,325.053 71.195,327.039 75.048 C 327.677 76.287,328.277 77.400,328.372 77.521 C 328.467 77.643,328.715 78.274,328.923 78.925 C 329.131 79.575,329.676 80.873,330.134 81.808 C 330.593 82.744,330.968 83.640,330.968 83.800 C 330.968 83.961,331.059 84.260,331.170 84.465 C 331.281 84.671,331.581 85.565,331.836 86.452 C 332.091 87.339,332.373 88.161,332.464 88.280 C 332.554 88.398,332.840 89.317,333.099 90.323 C 333.359 91.328,333.664 92.392,333.778 92.688 C 333.892 92.984,334.220 94.484,334.508 96.022 C 334.796 97.559,335.171 99.495,335.343 100.323 C 336.129 104.121,336.509 112.798,336.144 118.603 C 335.903 122.441,335.746 123.488,334.649 128.573 C 334.144 130.914,333.073 134.434,332.351 136.129 C 332.074 136.780,331.548 138.103,331.183 139.070 C 330.818 140.037,330.294 141.160,330.018 141.566 C 329.743 141.971,329.355 142.794,329.155 143.394 C 328.956 143.994,328.530 144.855,328.209 145.307 C 327.889 145.759,327.508 146.371,327.363 146.667 C 327.068 147.270,326.986 147.401,325.492 149.670 C 324.905 150.561,324.372 151.339,324.307 151.398 C 324.243 151.457,323.924 151.892,323.599 152.366 C 320.660 156.649,313.368 164.263,310.007 166.559 C 309.661 166.796,309.102 167.252,308.765 167.574 C 308.429 167.895,307.674 168.427,307.088 168.756 C 306.501 169.086,306.022 169.421,306.022 169.502 C 306.022 169.584,305.634 169.867,305.161 170.133 C 304.688 170.399,304.301 170.696,304.301 170.792 C 304.301 170.889,304.195 170.968,304.065 170.968 C 303.936 170.968,302.992 171.529,301.967 172.214 C 300.942 172.899,299.669 173.632,299.138 173.841 C 298.607 174.051,297.832 174.455,297.416 174.740 C 297.001 175.024,296.097 175.451,295.409 175.688 C 294.720 175.925,293.463 176.472,292.616 176.904 C 291.769 177.337,290.398 177.875,289.570 178.101 C 288.742 178.327,287.745 178.660,287.355 178.841 C 285.872 179.529,280.860 180.706,277.361 181.189 C 272.507 181.859,268.473 181.949,246.022 181.888 L 223.548 181.828 222.881 181.229 C 221.684 180.155,221.690 180.253,221.697 162.981 C 221.703 147.152,221.705 147.078,222.157 146.443 C 223.006 145.251,222.827 145.271,232.814 145.241 C 239.029 145.223,242.224 145.137,242.517 144.980 C 242.925 144.762,243.576 143.011,243.249 143.011 C 243.169 143.011,242.929 142.715,242.715 142.353 C 242.501 141.991,241.983 141.386,241.563 141.009 C 241.143 140.631,233.185 132.702,223.877 123.387 C 214.570 114.073,206.801 106.452,206.613 106.452 C 205.205 106.452,203.715 107.819,190.551 121.183 C 188.202 123.567,181.287 130.454,180.977 130.718 C 180.745 130.914,179.826 131.841,178.934 132.776 C 177.460 134.322,176.434 135.337,171.710 139.925 C 169.258 142.307,168.752 143.063,168.925 144.086 C 169.131 145.309,168.719 145.262,178.654 145.191 C 186.679 145.133,187.864 145.167,188.819 145.485 C 190.620 146.083,190.505 144.911,190.545 163.134 C 190.585 181.358,190.651 180.562,189.032 181.428 L 188.065 181.946 149.032 181.875 L 110.000 181.805 106.989 181.236 C 103.969 180.665,99.749 179.439,98.861 178.875 C 98.601 178.709,97.806 178.347,97.097 178.070 C 96.387 177.793,95.613 177.406,95.376 177.209 C 95.140 177.012,94.243 176.441,93.383 175.940 C 92.522 175.439,91.603 174.835,91.340 174.599 C 91.076 174.362,90.397 173.790,89.832 173.326 C 89.266 172.863,88.133 171.732,87.314 170.812 C 86.495 169.892,85.594 168.898,85.312 168.602 C 85.030 168.306,84.286 167.242,83.659 166.237 C 83.032 165.231,82.460 164.360,82.388 164.301 C 82.316 164.242,82.033 163.758,81.758 163.226 C 81.483 162.694,81.123 162.016,80.957 161.720 C 80.203 160.373,79.141 157.842,78.837 156.667 C 78.653 155.957,78.308 154.869,78.070 154.249 C 75.404 147.303,74.983 131.051,77.295 124.349 C 78.524 120.788,79.419 118.542,79.905 117.800 C 80.194 117.359,80.430 116.943,80.430 116.875 C 80.430 116.405,83.680 111.625,85.041 110.092 C 85.521 109.551,86.067 108.922,86.255 108.694 C 86.857 107.962,90.188 104.860,91.076 104.205 C 91.549 103.856,91.984 103.513,92.043 103.441 C 92.102 103.369,92.538 103.077,93.011 102.791 C 93.484 102.506,94.037 102.120,94.239 101.934 C 94.441 101.748,95.264 101.272,96.067 100.875 C 96.870 100.479,97.769 99.987,98.065 99.782 C 98.360 99.576,99.325 99.149,100.208 98.832 C 101.091 98.515,101.913 98.181,102.036 98.089 C 102.393 97.823,105.146 96.908,107.204 96.371 C 110.479 95.517,117.163 95.072,120.323 95.498 C 124.265 96.029,126.386 96.404,127.073 96.689 C 128.472 97.271,129.933 97.306,130.538 96.774 C 130.833 96.513,131.227 96.189,131.412 96.053 C 131.806 95.765,132.498 94.493,133.009 93.118 C 133.207 92.586,133.493 92.005,133.643 91.828 C 133.794 91.651,134.242 90.876,134.638 90.108 C 135.034 89.339,135.725 88.146,136.174 87.458 C 136.622 86.769,136.989 86.163,136.989 86.110 C 136.989 85.994,138.798 83.455,139.185 83.028 C 139.338 82.860,139.704 82.363,140.000 81.923 C 142.182 78.678,147.484 73.298,151.053 70.709 C 154.289 68.360,158.927 65.591,159.626 65.591 C 159.732 65.591,160.658 65.210,161.684 64.743 C 163.828 63.767,167.489 62.842,172.366 62.045 C 175.000 61.614,181.509 61.618,184.250 62.052 C 189.778 62.929,194.839 64.112,194.839 64.528 C 194.839 64.621,195.347 64.862,195.968 65.064 C 196.944 65.382,197.630 65.652,199.140 66.315 C 199.317 66.393,199.753 66.648,200.108 66.882 C 200.462 67.116,200.898 67.371,201.075 67.450 C 202.483 68.075,206.165 71.056,208.525 73.482 L 210.276 75.281 211.213 75.139 C 212.380 74.962,214.624 72.446,214.624 71.315 C 214.624 71.224,215.101 70.439,215.684 69.571 C 216.268 68.703,216.907 67.679,217.105 67.296 C 217.303 66.913,217.655 66.397,217.886 66.149 C 218.118 65.902,218.590 65.274,218.935 64.754 C 221.341 61.129,227.510 54.704,231.901 51.249 C 232.474 50.799,233.392 50.067,233.940 49.624 C 234.489 49.180,235.046 48.817,235.178 48.817 C 235.309 48.817,235.595 48.621,235.812 48.380 C 236.030 48.140,236.940 47.543,237.835 47.053 C 238.730 46.564,239.725 45.947,240.045 45.683 C 240.366 45.419,241.092 45.032,241.658 44.823 C 242.225 44.613,242.785 44.374,242.903 44.291 C 243.432 43.921,246.054 42.581,246.251 42.581 C 246.371 42.581,247.070 42.303,247.805 41.963 C 248.539 41.624,249.527 41.225,250.000 41.076 C 250.473 40.928,251.247 40.635,251.720 40.425 C 252.194 40.216,253.403 39.880,254.409 39.680 C 255.414 39.479,257.108 39.091,258.172 38.818 C 261.988 37.838,268.270 37.468,274.409 37.863 " id="path2"/><path data-cppathid="10003" fill-rule="evenodd" fill="#bcbcbc" stroke="none" d="M264.624 38.097 C 263.086 38.199,261.054 38.474,260.108 38.709 C 259.161 38.943,257.202 39.375,255.754 39.669 C 254.306 39.962,252.855 40.335,252.528 40.496 C 252.202 40.658,251.355 40.964,250.645 41.177 C 249.935 41.390,249.258 41.635,249.140 41.721 C 249.022 41.808,248.387 42.076,247.731 42.318 C 246.488 42.776,244.007 43.935,243.579 44.257 C 243.444 44.359,242.878 44.610,242.321 44.816 C 241.763 45.022,240.941 45.440,240.493 45.744 C 240.044 46.049,239.145 46.584,238.495 46.933 C 237.844 47.282,236.885 47.897,236.363 48.300 C 235.840 48.703,235.341 49.032,235.252 49.032 C 235.109 49.032,232.603 50.985,230.223 52.952 C 228.315 54.528,224.599 58.276,222.630 60.610 C 221.479 61.974,220.272 63.378,219.946 63.728 C 219.621 64.078,219.355 64.444,219.355 64.540 C 219.355 64.636,218.926 65.242,218.401 65.886 C 217.876 66.530,217.200 67.543,216.899 68.137 C 216.599 68.731,216.261 69.273,216.149 69.343 C 216.037 69.412,215.490 70.303,214.934 71.324 C 212.520 75.752,211.260 76.595,209.619 74.877 C 207.917 73.097,206.421 71.735,204.624 70.332 C 203.559 69.500,202.574 68.725,202.433 68.608 C 202.293 68.492,201.434 67.956,200.524 67.418 C 198.931 66.476,198.433 66.248,195.591 65.153 C 194.882 64.880,194.253 64.590,194.194 64.510 C 193.907 64.120,189.437 63.153,184.751 62.466 C 181.276 61.957,173.136 62.118,169.892 62.761 C 165.287 63.672,163.587 64.093,162.931 64.484 C 162.561 64.705,161.290 65.250,160.108 65.697 C 158.925 66.144,157.812 66.628,157.634 66.773 C 157.457 66.918,156.772 67.328,156.112 67.684 C 155.453 68.040,154.388 68.699,153.747 69.149 C 153.105 69.598,152.290 70.167,151.935 70.413 C 151.581 70.659,150.806 71.247,150.215 71.720 C 149.624 72.194,149.002 72.677,148.833 72.796 C 145.320 75.261,137.669 84.841,134.791 90.376 C 134.314 91.293,133.853 92.043,133.765 92.043 C 133.678 92.043,133.443 92.503,133.243 93.065 C 131.790 97.145,130.223 98.115,126.896 96.994 C 122.646 95.562,113.017 95.283,108.305 96.455 C 105.370 97.184,103.817 97.648,102.881 98.075 C 102.318 98.331,101.367 98.685,100.767 98.861 C 100.168 99.037,99.384 99.360,99.025 99.579 C 98.666 99.798,97.602 100.360,96.660 100.827 C 95.717 101.294,94.704 101.889,94.409 102.149 C 94.113 102.410,93.532 102.799,93.118 103.014 C 91.448 103.882,84.468 110.573,84.109 111.651 C 84.058 111.803,83.907 112.038,83.773 112.172 C 83.558 112.387,82.834 113.491,81.179 116.129 C 80.153 117.764,79.351 119.381,78.922 120.681 C 78.674 121.430,78.295 122.430,78.079 122.903 C 75.281 129.034,75.406 147.403,78.290 153.871 C 78.395 154.108,78.676 155.075,78.914 156.022 C 79.400 157.956,81.561 162.521,83.142 164.951 C 83.717 165.835,84.334 166.822,84.513 167.144 C 85.508 168.930,92.029 175.150,93.504 175.720 C 93.775 175.824,94.566 176.297,95.261 176.769 C 95.957 177.242,97.090 177.838,97.779 178.095 C 98.468 178.351,99.226 178.684,99.462 178.834 C 100.028 179.193,103.279 180.153,105.653 180.663 C 109.210 181.426,113.156 181.499,150.963 181.508 C 192.950 181.519,189.518 181.666,190.070 179.825 C 190.434 178.612,190.430 147.568,190.067 146.770 C 189.548 145.632,189.161 145.591,178.839 145.591 C 168.094 145.591,168.387 145.634,168.387 144.059 C 168.387 143.168,169.445 141.597,170.753 140.546 C 171.048 140.309,171.581 139.783,171.935 139.378 C 172.290 138.973,172.759 138.487,172.976 138.299 C 173.193 138.111,174.693 136.607,176.309 134.958 C 177.925 133.308,179.530 131.711,179.876 131.409 C 180.696 130.693,181.270 130.124,181.959 129.344 C 182.267 128.995,183.912 127.325,185.615 125.632 C 187.317 123.939,188.871 122.391,189.069 122.191 C 193.502 117.716,198.289 112.940,198.686 112.596 C 198.968 112.351,199.549 111.771,199.976 111.308 C 203.012 108.015,205.504 106.022,206.587 106.022 C 206.803 106.022,234.044 133.082,236.160 135.399 C 236.794 136.093,240.851 140.010,241.845 140.887 C 242.923 141.838,243.619 143.039,243.694 144.075 C 243.801 145.557,243.636 145.581,233.548 145.563 C 222.537 145.543,223.572 145.480,222.745 146.219 L 222.043 146.846 221.979 162.724 C 221.903 181.469,221.815 180.694,224.102 181.343 C 225.395 181.710,272.556 181.490,275.806 181.102 C 279.396 180.673,285.346 179.401,286.535 178.808 C 286.898 178.627,287.949 178.286,288.871 178.051 C 289.794 177.815,291.316 177.247,292.254 176.789 C 293.193 176.330,294.594 175.744,295.367 175.487 C 296.141 175.229,296.774 174.944,296.774 174.853 C 296.774 174.762,297.452 174.375,298.281 173.993 C 299.109 173.611,300.247 172.982,300.808 172.596 C 301.370 172.210,302.134 171.736,302.507 171.543 C 302.880 171.351,303.315 171.070,303.474 170.919 C 303.633 170.768,304.015 170.516,304.322 170.357 C 304.630 170.199,305.162 169.827,305.505 169.531 C 305.848 169.234,306.419 168.843,306.774 168.662 C 309.013 167.518,317.869 159.335,320.430 156.044 C 320.962 155.360,321.496 154.688,321.617 154.551 C 321.737 154.414,322.299 153.672,322.865 152.903 C 323.432 152.134,324.012 151.360,324.156 151.183 C 324.299 151.005,324.652 150.473,324.939 150.000 C 325.226 149.527,325.528 149.091,325.609 149.032 C 325.779 148.908,328.070 144.989,328.626 143.871 C 328.832 143.457,329.344 142.423,329.765 141.572 C 330.186 140.722,330.919 138.980,331.395 137.701 C 331.871 136.423,332.351 135.183,332.461 134.946 C 332.911 133.980,334.193 129.448,334.507 127.715 C 334.691 126.695,335.031 125.124,335.261 124.224 C 336.238 120.403,336.300 107.852,335.367 102.523 C 334.520 97.680,333.759 93.888,333.266 92.043 C 332.467 89.059,330.382 82.824,329.921 82.043 C 329.703 81.673,329.305 80.699,329.038 79.879 C 328.771 79.058,328.190 77.750,327.748 76.971 C 327.306 76.192,326.775 75.110,326.567 74.567 C 326.360 74.024,326.031 73.403,325.837 73.186 C 325.643 72.970,325.249 72.358,324.961 71.827 C 324.673 71.295,324.275 70.618,324.076 70.323 C 323.877 70.027,323.073 68.817,322.289 67.634 C 321.506 66.452,320.641 65.225,320.367 64.908 C 320.094 64.592,319.684 63.987,319.456 63.564 C 319.228 63.142,318.978 62.796,318.900 62.796 C 318.822 62.796,318.229 62.142,317.582 61.344 C 316.333 59.804,315.099 58.464,312.676 56.022 C 310.336 53.662,309.324 52.804,305.699 50.103 C 302.770 47.922,302.298 47.599,300.968 46.867 C 300.258 46.476,299.412 45.939,299.087 45.674 C 298.763 45.408,298.279 45.128,298.012 45.051 C 297.745 44.974,296.559 44.439,295.376 43.862 C 294.194 43.285,292.016 42.369,290.538 41.826 C 289.059 41.284,287.414 40.663,286.882 40.446 C 286.349 40.229,285.043 39.890,283.978 39.693 C 281.843 39.296,280.953 39.104,279.032 38.624 C 276.420 37.971,270.033 37.738,264.624 38.097 M274.194 39.057 C 282.664 40.178,286.707 41.125,291.075 43.010 C 291.312 43.112,291.892 43.310,292.366 43.450 C 292.839 43.589,293.632 43.936,294.128 44.220 C 294.625 44.504,295.593 44.911,296.280 45.125 C 296.966 45.338,297.967 45.848,298.503 46.257 C 299.039 46.666,300.031 47.272,300.706 47.602 C 301.382 47.933,301.935 48.285,301.935 48.385 C 301.935 48.485,302.298 48.787,302.742 49.056 C 303.185 49.325,303.945 49.865,304.431 50.256 C 304.916 50.648,305.389 50.968,305.481 50.968 C 305.573 50.968,305.854 51.190,306.104 51.461 C 306.354 51.733,306.995 52.239,307.527 52.587 C 308.689 53.345,311.398 55.519,311.398 55.693 C 311.398 55.761,311.858 56.303,312.419 56.898 C 312.981 57.492,314.215 58.845,315.161 59.903 C 316.107 60.962,317.402 62.360,318.039 63.011 C 318.676 63.661,319.321 64.485,319.473 64.841 C 319.624 65.197,320.047 65.801,320.412 66.183 C 320.777 66.565,321.075 66.981,321.075 67.106 C 321.075 67.232,321.608 68.134,322.258 69.112 C 322.909 70.090,323.441 70.965,323.441 71.057 C 323.441 71.149,323.659 71.524,323.925 71.890 C 324.191 72.257,324.717 73.095,325.094 73.752 C 325.771 74.930,325.998 75.380,327.019 77.559 C 327.304 78.167,327.680 78.784,327.855 78.929 C 328.029 79.074,328.172 79.327,328.172 79.492 C 328.172 79.656,328.264 79.959,328.376 80.164 C 328.488 80.370,328.738 81.047,328.931 81.670 C 329.125 82.292,329.427 82.944,329.601 83.119 C 329.776 83.294,330.162 84.429,330.458 85.643 C 330.755 86.857,331.232 88.507,331.519 89.311 C 333.094 93.722,334.689 103.670,335.208 112.306 C 335.505 117.245,333.727 128.598,331.832 133.871 C 331.176 135.696,330.916 136.527,330.348 138.621 C 330.217 139.105,329.883 139.764,329.606 140.087 C 329.329 140.409,328.937 141.198,328.735 141.838 C 328.533 142.479,328.056 143.417,327.675 143.921 C 327.295 144.426,326.797 145.274,326.570 145.806 C 326.344 146.339,325.945 147.016,325.684 147.312 C 325.424 147.608,325.054 148.159,324.864 148.537 C 324.673 148.915,324.275 149.485,323.979 149.805 C 323.683 150.124,323.441 150.467,323.441 150.567 C 323.441 150.758,322.000 152.717,321.723 152.903 C 321.635 152.962,321.362 153.407,321.117 153.892 C 320.871 154.377,320.422 154.935,320.120 155.133 C 319.817 155.332,319.570 155.626,319.570 155.787 C 319.570 155.949,318.578 157.051,317.366 158.237 C 312.553 162.944,311.155 164.270,310.658 164.595 C 310.373 164.782,310.080 165.125,310.006 165.357 C 309.932 165.590,309.534 165.891,309.122 166.027 C 308.709 166.164,308.166 166.553,307.916 166.892 C 307.665 167.231,307.209 167.610,306.902 167.734 C 306.595 167.859,305.909 168.250,305.376 168.605 C 304.844 168.959,304.132 169.418,303.793 169.624 C 303.455 169.831,302.875 170.211,302.503 170.468 C 301.835 170.932,297.897 173.165,296.237 174.022 C 295.763 174.267,295.280 174.582,295.161 174.724 C 295.043 174.866,294.232 175.198,293.358 175.463 C 292.485 175.728,291.513 176.134,291.198 176.367 C 290.623 176.792,289.381 177.199,286.989 177.748 C 286.280 177.911,285.015 178.285,284.178 178.580 C 283.295 178.891,281.266 179.301,279.339 179.557 C 277.515 179.799,275.151 180.119,274.086 180.268 C 272.627 180.471,266.223 180.538,248.095 180.538 L 224.039 180.538 223.412 179.787 L 222.785 179.036 222.844 163.074 C 222.900 148.087,222.927 147.089,223.287 146.728 C 223.641 146.374,224.449 146.336,233.825 146.237 C 244.594 146.123,244.810 146.101,245.063 145.094 C 245.374 143.853,244.568 142.360,242.618 140.567 C 242.343 140.314,240.580 138.559,238.700 136.667 C 236.820 134.774,235.207 133.152,235.114 133.062 C 234.197 132.169,220.477 118.443,220.292 118.234 C 220.157 118.082,218.947 116.874,217.604 115.551 C 216.260 114.227,215.065 113.038,214.946 112.909 C 214.828 112.780,214.344 112.311,213.871 111.866 C 213.398 111.421,212.143 110.142,211.083 109.023 C 206.194 103.863,205.693 103.874,200.860 109.236 C 199.124 111.162,195.733 114.478,194.847 115.117 C 194.649 115.260,193.474 116.489,192.235 117.849 C 190.050 120.250,188.193 122.108,186.434 123.656 C 185.482 124.493,183.423 126.592,181.810 128.369 C 180.715 129.575,178.692 131.559,177.134 132.954 C 175.753 134.190,175.462 134.478,174.231 135.835 C 172.337 137.922,170.682 139.611,169.307 140.861 C 166.999 142.960,166.489 144.775,167.935 145.746 L 168.666 146.237 178.371 146.237 C 189.184 146.237,188.829 146.189,189.237 147.704 C 189.373 148.209,189.459 154.199,189.467 163.720 L 189.479 178.929 188.783 179.795 L 188.088 180.661 149.259 180.594 C 120.283 180.544,110.130 180.462,109.247 180.271 C 108.597 180.131,106.812 179.808,105.281 179.554 C 102.162 179.037,97.024 177.251,96.022 176.336 C 95.785 176.120,95.145 175.752,94.600 175.519 C 94.055 175.286,93.372 174.868,93.083 174.591 C 92.793 174.313,92.078 173.686,91.493 173.198 C 88.533 170.724,85.083 166.994,84.458 165.591 C 84.221 165.059,83.859 164.382,83.652 164.086 C 82.956 163.089,80.683 158.385,80.327 157.204 C 80.237 156.909,80.036 156.520,79.879 156.340 C 79.722 156.160,79.390 155.047,79.141 153.867 C 78.893 152.686,78.444 151.140,78.144 150.430 C 77.114 147.991,76.382 135.877,76.989 131.299 C 77.108 130.407,77.301 128.951,77.418 128.062 C 77.540 127.147,77.860 126.006,78.159 125.428 C 78.448 124.867,78.892 123.586,79.144 122.581 C 79.397 121.575,79.738 120.604,79.901 120.422 C 80.065 120.240,80.354 119.720,80.544 119.266 C 80.734 118.811,81.270 117.813,81.735 117.047 C 82.200 116.281,82.581 115.584,82.581 115.498 C 82.581 115.411,82.949 114.814,83.400 114.171 C 83.850 113.528,84.406 112.595,84.636 112.096 C 84.866 111.598,85.223 111.134,85.430 111.065 C 85.636 110.996,86.101 110.510,86.461 109.986 C 86.822 109.461,87.205 109.032,87.312 109.032 C 87.419 109.032,87.825 108.709,88.215 108.315 C 88.606 107.920,89.505 107.091,90.215 106.471 C 90.925 105.851,91.747 105.124,92.043 104.854 C 92.339 104.584,93.113 104.014,93.763 103.587 C 94.414 103.160,95.258 102.517,95.639 102.158 C 96.020 101.799,96.516 101.505,96.740 101.505 C 96.965 101.505,97.863 101.135,98.735 100.682 C 99.608 100.230,101.484 99.492,102.903 99.044 C 104.323 98.595,105.581 98.156,105.699 98.067 C 105.911 97.909,106.591 97.774,110.860 97.048 C 115.367 96.280,123.255 96.769,127.316 98.066 C 130.458 99.070,132.178 98.216,133.166 95.161 C 133.433 94.333,133.756 93.559,133.882 93.441 C 134.156 93.183,135.074 91.718,135.430 90.968 C 135.571 90.672,136.217 89.608,136.867 88.602 C 137.516 87.597,138.291 86.321,138.589 85.768 C 138.888 85.214,139.232 84.700,139.354 84.624 C 139.476 84.549,139.759 84.131,139.982 83.695 C 140.549 82.590,143.552 79.050,145.353 77.364 C 145.636 77.099,145.975 76.752,146.106 76.594 C 146.237 76.436,146.789 75.856,147.333 75.304 C 147.876 74.752,148.360 74.204,148.408 74.086 C 148.456 73.968,148.882 73.602,149.355 73.273 C 150.604 72.406,151.673 71.636,152.046 71.337 C 152.225 71.193,152.635 70.939,152.956 70.772 C 153.278 70.605,153.712 70.315,153.921 70.127 C 154.130 69.939,154.591 69.644,154.946 69.472 C 155.301 69.300,155.786 68.990,156.024 68.784 C 156.262 68.577,156.940 68.195,157.530 67.935 C 158.119 67.675,158.898 67.238,159.260 66.963 C 159.622 66.688,160.590 66.259,161.411 66.009 C 162.232 65.759,163.387 65.288,163.978 64.962 C 167.960 62.767,190.067 62.516,192.480 64.639 C 192.957 65.058,194.987 65.912,196.237 66.220 C 196.828 66.365,197.466 66.623,197.655 66.793 C 197.843 66.963,198.522 67.371,199.163 67.699 C 199.804 68.026,201.052 68.826,201.938 69.476 C 202.824 70.126,204.081 71.007,204.731 71.434 C 206.083 72.322,207.346 73.501,209.015 75.430 C 211.138 77.886,212.790 77.217,214.880 73.055 C 215.486 71.848,216.105 70.763,216.254 70.645 C 216.403 70.527,216.812 69.891,217.163 69.233 C 217.514 68.575,218.091 67.719,218.445 67.332 C 218.799 66.944,219.218 66.370,219.376 66.056 C 219.619 65.573,221.647 63.043,224.215 60.018 C 225.788 58.164,229.261 54.624,229.507 54.624 C 229.610 54.624,230.070 54.261,230.530 53.817 C 230.989 53.374,232.154 52.430,233.118 51.720 C 234.082 51.011,235.191 50.164,235.582 49.839 C 235.973 49.513,236.401 49.247,236.533 49.247 C 236.665 49.247,237.136 48.925,237.580 48.531 C 238.024 48.137,238.861 47.589,239.441 47.314 C 240.020 47.038,240.811 46.535,241.197 46.195 C 241.584 45.856,242.602 45.339,243.460 45.047 C 244.317 44.756,245.172 44.384,245.359 44.221 C 245.546 44.058,246.425 43.684,247.312 43.389 C 248.199 43.095,249.780 42.541,250.825 42.159 C 252.510 41.543,254.957 40.799,257.204 40.220 C 257.618 40.113,259.987 39.773,262.467 39.464 C 264.948 39.154,267.020 38.858,267.073 38.805 C 267.303 38.575,271.737 38.731,274.194 39.057 " id="path3"/><path data-cppathid="10004" fill-rule="evenodd" fill="#c4c4c4" stroke="none" d="M266.237 37.779 C 263.185 37.946,259.935 38.365,258.172 38.818 C 257.108 39.091,255.414 39.479,254.409 39.680 C 253.403 39.880,252.194 40.216,251.720 40.425 C 251.247 40.635,250.473 40.928,250.000 41.076 C 249.527 41.225,248.539 41.624,247.805 41.963 C 247.070 42.303,246.371 42.581,246.251 42.581 C 246.054 42.581,243.432 43.921,242.903 44.291 C 242.785 44.374,242.225 44.613,241.658 44.823 C 241.092 45.032,240.366 45.419,240.045 45.683 C 239.725 45.947,238.730 46.564,237.835 47.053 C 236.940 47.543,236.030 48.140,235.812 48.380 C 235.595 48.621,235.309 48.817,235.178 48.817 C 235.046 48.817,234.489 49.180,233.940 49.624 C 233.392 50.067,232.474 50.799,231.901 51.249 C 227.510 54.704,221.341 61.129,218.935 64.754 C 218.590 65.274,218.118 65.902,217.886 66.149 C 217.655 66.397,217.303 66.913,217.105 67.296 C 216.907 67.679,216.268 68.703,215.684 69.571 C 215.101 70.439,214.624 71.224,214.624 71.315 C 214.624 72.446,212.380 74.962,211.213 75.139 L 210.276 75.281 208.525 73.482 C 206.165 71.056,202.483 68.075,201.075 67.450 C 200.898 67.371,200.462 67.116,200.108 66.882 C 199.753 66.648,199.317 66.393,199.140 66.315 C 197.630 65.652,196.944 65.382,195.968 65.064 C 195.347 64.862,194.839 64.621,194.839 64.528 C 194.839 64.112,189.778 62.929,184.250 62.052 C 181.509 61.618,175.000 61.614,172.366 62.045 C 167.489 62.842,163.828 63.767,161.684 64.743 C 160.658 65.210,159.732 65.591,159.626 65.591 C 158.927 65.591,154.289 68.360,151.053 70.709 C 147.484 73.298,142.182 78.678,140.000 81.923 C 139.704 82.363,139.338 82.860,139.185 83.028 C 138.798 83.455,136.989 85.994,136.989 86.110 C 136.989 86.163,136.622 86.769,136.174 87.458 C 135.725 88.146,135.034 89.339,134.638 90.108 C 134.242 90.876,133.794 91.651,133.643 91.828 C 133.493 92.005,133.207 92.586,133.009 93.118 C 132.498 94.493,131.806 95.765,131.412 96.053 C 131.227 96.189,130.833 96.513,130.538 96.774 C 129.933 97.306,128.472 97.271,127.073 96.689 C 126.386 96.404,124.265 96.029,120.323 95.498 C 117.163 95.072,110.479 95.517,107.204 96.371 C 105.146 96.908,102.393 97.823,102.036 98.089 C 101.913 98.181,101.091 98.515,100.208 98.832 C 99.325 99.149,98.360 99.576,98.065 99.782 C 97.769 99.987,96.870 100.479,96.067 100.875 C 95.264 101.272,94.441 101.748,94.239 101.934 C 94.037 102.120,93.484 102.506,93.011 102.791 C 92.538 103.077,92.102 103.369,92.043 103.441 C 91.984 103.513,91.549 103.856,91.076 104.205 C 90.188 104.860,86.857 107.962,86.255 108.694 C 86.067 108.922,85.521 109.551,85.041 110.092 C 83.680 111.625,80.430 116.405,80.430 116.875 C 80.430 116.943,80.194 117.359,79.905 117.800 C 79.419 118.542,78.524 120.788,77.295 124.349 C 74.983 131.051,75.404 147.303,78.070 154.249 C 78.308 154.869,78.653 155.957,78.837 156.667 C 79.141 157.842,80.203 160.373,80.957 161.720 C 81.123 162.016,81.483 162.694,81.758 163.226 C 82.033 163.758,82.316 164.242,82.388 164.301 C 82.460 164.360,83.032 165.231,83.659 166.237 C 84.286 167.242,85.030 168.306,85.312 168.602 C 85.594 168.898,86.495 169.892,87.314 170.812 C 88.133 171.732,89.266 172.863,89.832 173.326 C 90.397 173.790,91.076 174.362,91.340 174.599 C 91.603 174.835,92.522 175.439,93.383 175.940 C 94.243 176.441,95.140 177.012,95.376 177.209 C 95.613 177.406,96.387 177.793,97.097 178.070 C 97.806 178.347,98.601 178.709,98.861 178.875 C 99.749 179.439,103.969 180.665,106.989 181.236 L 110.000 181.805 149.032 181.875 L 188.065 181.946 189.032 181.428 C 190.651 180.562,190.585 181.358,190.545 163.134 C 190.505 144.911,190.620 146.083,188.819 145.485 C 187.864 145.167,186.679 145.133,178.654 145.191 C 168.719 145.262,169.131 145.309,168.925 144.086 C 168.752 143.063,169.258 142.307,171.710 139.925 C 176.434 135.337,177.460 134.322,178.934 132.776 C 179.826 131.841,180.745 130.914,180.977 130.718 C 181.287 130.454,188.202 123.567,190.551 121.183 C 203.715 107.819,205.205 106.452,206.613 106.452 C 206.801 106.452,214.570 114.073,223.877 123.387 C 233.185 132.702,241.143 140.631,241.563 141.009 C 241.983 141.386,242.501 141.991,242.715 142.353 C 242.929 142.715,243.169 143.011,243.249 143.011 C 243.576 143.011,242.925 144.762,242.517 144.980 C 242.224 145.137,239.029 145.223,232.814 145.241 C 222.827 145.271,223.006 145.251,222.157 146.443 C 221.705 147.078,221.703 147.152,221.697 162.981 C 221.690 180.253,221.684 180.155,222.881 181.229 L 223.548 181.828 246.022 181.888 C 268.473 181.949,272.507 181.859,277.361 181.189 C 280.860 180.706,285.872 179.529,287.355 178.841 C 287.745 178.660,288.742 178.327,289.570 178.101 C 290.398 177.875,291.769 177.337,292.616 176.904 C 293.463 176.472,294.720 175.925,295.409 175.688 C 296.097 175.451,297.001 175.024,297.416 174.740 C 297.832 174.455,298.607 174.051,299.138 173.841 C 299.669 173.632,300.942 172.899,301.967 172.214 C 302.992 171.529,303.936 170.968,304.065 170.968 C 304.195 170.968,304.301 170.889,304.301 170.792 C 304.301 170.696,304.688 170.399,305.161 170.133 C 305.634 169.867,306.022 169.584,306.022 169.502 C 306.022 169.421,306.501 169.086,307.088 168.756 C 307.674 168.427,308.429 167.895,308.765 167.574 C 309.102 167.252,309.661 166.796,310.007 166.559 C 313.368 164.263,320.660 156.649,323.599 152.366 C 323.924 151.892,324.243 151.457,324.307 151.398 C 324.372 151.339,324.905 150.561,325.492 149.670 C 326.986 147.401,327.068 147.270,327.363 146.667 C 327.508 146.371,327.889 145.759,328.209 145.307 C 328.530 144.855,328.956 143.994,329.155 143.394 C 329.355 142.794,329.743 141.971,330.018 141.566 C 330.294 141.160,330.818 140.037,331.183 139.070 C 331.548 138.103,332.074 136.780,332.351 136.129 C 333.073 134.434,334.144 130.914,334.649 128.573 C 335.746 123.488,335.903 122.441,336.144 118.603 C 336.509 112.798,336.129 104.121,335.343 100.323 C 335.171 99.495,334.796 97.559,334.508 96.022 C 334.220 94.484,333.892 92.984,333.778 92.688 C 333.664 92.392,333.359 91.328,333.099 90.323 C 332.840 89.317,332.554 88.398,332.464 88.280 C 332.373 88.161,332.091 87.339,331.836 86.452 C 331.581 85.565,331.281 84.671,331.170 84.465 C 331.059 84.260,330.968 83.961,330.968 83.800 C 330.968 83.640,330.593 82.744,330.134 81.808 C 329.676 80.873,329.131 79.575,328.923 78.925 C 328.715 78.274,328.467 77.643,328.372 77.521 C 328.277 77.400,327.677 76.287,327.039 75.048 C 325.722 72.494,324.849 70.969,323.699 69.219 C 319.184 62.346,316.687 59.406,310.323 53.470 C 308.225 51.513,305.301 49.282,302.816 47.742 C 301.957 47.210,300.786 46.471,300.214 46.101 C 299.227 45.463,293.534 42.581,293.260 42.581 C 293.188 42.581,292.619 42.347,291.995 42.060 C 291.371 41.774,290.231 41.326,289.462 41.065 C 288.694 40.803,287.809 40.459,287.496 40.301 C 287.183 40.142,285.780 39.769,284.378 39.472 C 282.975 39.175,280.957 38.743,279.892 38.512 C 276.921 37.867,270.708 37.534,266.237 37.779 M274.305 38.076 C 276.195 38.200,278.323 38.447,279.032 38.624 C 280.953 39.104,281.843 39.296,283.978 39.693 C 285.043 39.890,286.349 40.229,286.882 40.446 C 287.414 40.663,289.059 41.284,290.538 41.826 C 292.016 42.369,294.194 43.285,295.376 43.862 C 296.559 44.439,297.745 44.974,298.012 45.051 C 298.279 45.128,298.763 45.408,299.087 45.674 C 299.412 45.939,300.258 46.476,300.968 46.867 C 302.298 47.599,302.770 47.922,305.699 50.103 C 309.324 52.804,310.336 53.662,312.676 56.022 C 315.099 58.464,316.333 59.804,317.582 61.344 C 318.229 62.142,318.822 62.796,318.900 62.796 C 318.978 62.796,319.228 63.142,319.456 63.564 C 319.684 63.987,320.094 64.592,320.367 64.908 C 320.641 65.225,321.506 66.452,322.289 67.634 C 323.073 68.817,323.877 70.027,324.076 70.323 C 324.275 70.618,324.673 71.295,324.961 71.827 C 325.249 72.358,325.643 72.970,325.837 73.186 C 326.031 73.403,326.360 74.024,326.567 74.567 C 326.775 75.110,327.306 76.192,327.748 76.971 C 328.190 77.750,328.771 79.058,329.038 79.879 C 329.305 80.699,329.703 81.673,329.921 82.043 C 330.382 82.824,332.467 89.059,333.266 92.043 C 333.759 93.888,334.520 97.680,335.367 102.523 C 336.300 107.852,336.238 120.403,335.261 124.224 C 335.031 125.124,334.691 126.695,334.507 127.715 C 334.193 129.448,332.911 133.980,332.461 134.946 C 332.351 135.183,331.871 136.423,331.395 137.701 C 330.919 138.980,330.186 140.722,329.765 141.572 C 329.344 142.423,328.832 143.457,328.626 143.871 C 328.070 144.989,325.779 148.908,325.609 149.032 C 325.528 149.091,325.226 149.527,324.939 150.000 C 324.652 150.473,324.299 151.005,324.156 151.183 C 324.012 151.360,323.432 152.134,322.865 152.903 C 322.299 153.672,321.737 154.414,321.617 154.551 C 321.496 154.688,320.962 155.360,320.430 156.044 C 317.869 159.335,309.013 167.518,306.774 168.662 C 306.419 168.843,305.848 169.234,305.505 169.531 C 305.162 169.827,304.630 170.199,304.322 170.357 C 304.015 170.516,303.633 170.768,303.474 170.919 C 303.315 171.070,302.880 171.351,302.507 171.543 C 302.134 171.736,301.370 172.210,300.808 172.596 C 300.247 172.982,299.109 173.611,298.281 173.993 C 297.452 174.375,296.774 174.762,296.774 174.853 C 296.774 174.944,296.141 175.229,295.367 175.487 C 294.594 175.744,293.193 176.330,292.254 176.789 C 291.316 177.247,289.794 177.815,288.871 178.051 C 287.949 178.286,286.898 178.627,286.535 178.808 C 285.346 179.401,279.396 180.673,275.806 181.102 C 272.556 181.490,225.395 181.710,224.102 181.343 C 221.815 180.694,221.903 181.469,221.979 162.724 L 222.043 146.846 222.745 146.219 C 223.572 145.480,222.537 145.543,233.548 145.563 C 243.636 145.581,243.801 145.557,243.694 144.075 C 243.619 143.039,242.923 141.838,241.845 140.887 C 240.851 140.010,236.794 136.093,236.160 135.399 C 234.044 133.082,206.803 106.022,206.587 106.022 C 205.504 106.022,203.012 108.015,199.976 111.308 C 199.549 111.771,198.968 112.351,198.686 112.596 C 198.289 112.940,193.502 117.716,189.069 122.191 C 188.871 122.391,187.317 123.939,185.615 125.632 C 183.912 127.325,182.267 128.995,181.959 129.344 C 181.270 130.124,180.696 130.693,179.876 131.409 C 179.530 131.711,177.925 133.308,176.309 134.958 C 174.693 136.607,173.193 138.111,172.976 138.299 C 172.759 138.487,172.290 138.973,171.935 139.378 C 171.581 139.783,171.048 140.309,170.753 140.546 C 169.445 141.597,168.387 143.168,168.387 144.059 C 168.387 145.634,168.094 145.591,178.839 145.591 C 189.161 145.591,189.548 145.632,190.067 146.770 C 190.430 147.568,190.434 178.612,190.070 179.825 C 189.518 181.666,192.950 181.519,150.963 181.508 C 113.156 181.499,109.210 181.426,105.653 180.663 C 103.279 180.153,100.028 179.193,99.462 178.834 C 99.226 178.684,98.468 178.351,97.779 178.095 C 97.090 177.838,95.957 177.242,95.261 176.769 C 94.566 176.297,93.775 175.824,93.504 175.720 C 92.029 175.150,85.508 168.930,84.513 167.144 C 84.334 166.822,83.717 165.835,83.142 164.951 C 81.561 162.521,79.400 157.956,78.914 156.022 C 78.676 155.075,78.395 154.108,78.290 153.871 C 75.406 147.403,75.281 129.034,78.079 122.903 C 78.295 122.430,78.674 121.430,78.922 120.681 C 79.351 119.381,80.153 117.764,81.179 116.129 C 82.834 113.491,83.558 112.387,83.773 112.172 C 83.907 112.038,84.058 111.803,84.109 111.651 C 84.468 110.573,91.448 103.882,93.118 103.014 C 93.532 102.799,94.113 102.410,94.409 102.149 C 94.704 101.889,95.717 101.294,96.660 100.827 C 97.602 100.360,98.666 99.798,99.025 99.579 C 99.384 99.360,100.168 99.037,100.767 98.861 C 101.367 98.685,102.318 98.331,102.881 98.075 C 103.817 97.648,105.370 97.184,108.305 96.455 C 113.017 95.283,122.646 95.562,126.896 96.994 C 130.223 98.115,131.790 97.145,133.243 93.065 C 133.443 92.503,133.678 92.043,133.765 92.043 C 133.853 92.043,134.314 91.293,134.791 90.376 C 137.669 84.841,145.320 75.261,148.833 72.796 C 149.002 72.677,149.624 72.194,150.215 71.720 C 150.806 71.247,151.581 70.659,151.935 70.413 C 152.290 70.167,153.105 69.598,153.747 69.149 C 154.388 68.699,155.453 68.040,156.112 67.684 C 156.772 67.328,157.457 66.918,157.634 66.773 C 157.812 66.628,158.925 66.144,160.108 65.697 C 161.290 65.250,162.561 64.705,162.931 64.484 C 163.587 64.093,165.287 63.672,169.892 62.761 C 173.136 62.118,181.276 61.957,184.751 62.466 C 189.437 63.153,193.907 64.120,194.194 64.510 C 194.253 64.590,194.882 64.880,195.591 65.153 C 198.433 66.248,198.931 66.476,200.524 67.418 C 201.434 67.956,202.293 68.492,202.433 68.608 C 202.574 68.725,203.559 69.500,204.624 70.332 C 206.421 71.735,207.917 73.097,209.619 74.877 C 211.260 76.595,212.520 75.752,214.934 71.324 C 215.490 70.303,216.037 69.412,216.149 69.343 C 216.261 69.273,216.599 68.731,216.899 68.137 C 217.200 67.543,217.876 66.530,218.401 65.886 C 218.926 65.242,219.355 64.636,219.355 64.540 C 219.355 64.444,219.621 64.078,219.946 63.728 C 220.272 63.378,221.479 61.974,222.630 60.610 C 224.599 58.276,228.315 54.528,230.223 52.952 C 232.603 50.985,235.109 49.032,235.252 49.032 C 235.341 49.032,235.840 48.703,236.363 48.300 C 236.885 47.897,237.844 47.282,238.495 46.933 C 239.145 46.584,240.044 46.049,240.493 45.744 C 240.941 45.440,241.763 45.022,242.321 44.816 C 242.878 44.610,243.444 44.359,243.579 44.257 C 244.007 43.935,246.488 42.776,247.731 42.318 C 248.387 42.076,249.022 41.808,249.140 41.721 C 249.258 41.635,249.935 41.390,250.645 41.177 C 251.355 40.964,252.202 40.658,252.528 40.496 C 252.855 40.335,254.306 39.962,255.754 39.669 C 257.202 39.375,259.161 38.943,260.108 38.709 C 263.070 37.974,268.847 37.717,274.305 38.076 " id="path4"/></g></svg>