<?xml version="1.0" encoding="UTF-8"?>
<svg xmlns="http://www.w3.org/2000/svg" onmouseup="{ if(window.parent.document.onmouseup) window.parent.document.onmouseup(arguments[0]);}" viewBox="0 0 50 89" data-name="Layer 1" id="Layer_1"><defs><style>.cls-1{fill:#3d820a;}</style></defs><title/><path data-cppathid="10000" d="M20.7,78.3a9.4,9.4,0,0,1-6.9-2.9l-.5-.4a9.8,9.8,0,0,1-2.8-6.9V19.7A9.6,9.6,0,0,1,20.2,10H30.8a9.6,9.6,0,0,1,9.7,9.7H36.8a6,6,0,0,0-6-6H20.2a6,6,0,0,0-6,6V68.1a6.3,6.3,0,0,0,1.7,4.3l.5.4a5.8,5.8,0,0,0,4.3,1.8,5.6,5.6,0,0,0,4.2-1.8,6,6,0,0,0,1.8-4.2V30.3h3.6V68.6a9.7,9.7,0,0,1-2.8,6.8A9.4,9.4,0,0,1,20.7,78.3Z" class="cls-1"/></svg>